ISO-10303-21;
HEADER;
FILE_DESCRIPTION((''),'2;1');
FILE_NAME('TRUSS_FRAME','2026-09-02T18:33:36',('jones'),(''),
'CREO PARAMETRIC BY PTC INC, 2025102','CREO PARAMETRIC BY PTC INC, 2025102','');
FILE_SCHEMA(('CONFIG_CONTROL_DESIGN'));
ENDSEC;
DATA;
#1=DIRECTION('',(-1.E0,0.E0,0.E0));
#2=VECTOR('',#1,1.124501655647E3);
#3=CARTESIAN_POINT('',(7.622508278236E2,3.E2,0.E0));
#4=LINE('',#3,#2);
#5=DIRECTION('',(8.E-1,-6.E-1,0.E0));
#6=VECTOR('',#5,4.245016556473E2);
#7=CARTESIAN_POINT('',(-3.698006622589E2,2.773504966942E2,0.E0));
#8=LINE('',#7,#6);
#9=DIRECTION('',(1.E0,0.E0,0.E0));
#10=VECTOR('',#9,3.135168560996E2);
#11=CARTESIAN_POINT('',(3.774917217635E1,0.E0,0.E0));
#12=LINE('',#11,#10);
#13=DIRECTION('',(8.E-1,6.E-1,0.E0));
#14=VECTOR('',#13,4.245016556473E2);
#15=CARTESIAN_POINT('',(4.301993377411E2,2.264950330581E1,0.E0));
#16=LINE('',#15,#14);
#17=DIRECTION('',(-9.306829097510E-1,-3.658269010029E-1,0.E0));
#18=VECTOR('',#17,2.738792600970E2);
#19=CARTESIAN_POINT('',(5.116813228149E2,1.712668414792E2,0.E0));
#20=LINE('',#19,#18);
#21=DIRECTION('',(8.E-1,6.E-1,0.E0));
#22=VECTOR('',#21,1.632406613233E2);
#23=CARTESIAN_POINT('',(3.965420241723E2,4.563151812924E1,0.E0));
#24=LINE('',#23,#22);
#25=DIRECTION('',(9.998365066994E-1,1.808203172225E-2,0.E0));
#26=VECTOR('',#25,1.243225435519E2);
#27=CARTESIAN_POINT('',(2.629291190310E2,4.018612984575E1,0.E0));
#28=LINE('',#27,#26);
#29=DIRECTION('',(9.306829097510E-1,3.658269010029E-1,0.E0));
#30=VECTOR('',#29,5.216674866632E2);
#31=CARTESIAN_POINT('',(7.148083572090E1,3.968907344398E1,0.E0));
#32=LINE('',#31,#30);
#33=DIRECTION('',(1.E0,0.E0,0.E0));
#34=VECTOR('',#33,4.743427197152E1);
#35=CARTESIAN_POINT('',(1.819333333333E1,3.858E1,0.E0));
#36=LINE('',#35,#34);
#37=DIRECTION('',(8.E-1,-6.E-1,0.E0));
#38=VECTOR('',#37,3.180666666667E2);
#39=CARTESIAN_POINT('',(-2.4586E2,2.3262E2,0.E0));
#40=LINE('',#39,#38);
#41=CARTESIAN_POINT('',(-4.E2,3.E2,0.E0));
#42=DIRECTION('',(0.E0,0.E0,1.E0));
#43=DIRECTION('',(1.E0,0.E0,0.E0));
#44=AXIS2_PLACEMENT_3D('',#41,#42,#43);
#46=CARTESIAN_POINT('',(-4.E2,3.E2,0.E0));
#47=DIRECTION('',(0.E0,0.E0,1.E0));
#48=DIRECTION('',(-1.E0,0.E0,0.E0));
#49=AXIS2_PLACEMENT_3D('',#46,#47,#48);
#51=CARTESIAN_POINT('',(4.E2,0.E0,0.E0));
#52=DIRECTION('',(0.E0,0.E0,1.E0));
#53=DIRECTION('',(1.E0,0.E0,0.E0));
#54=AXIS2_PLACEMENT_3D('',#51,#52,#53);
#56=CARTESIAN_POINT('',(4.E2,0.E0,0.E0));
#57=DIRECTION('',(0.E0,0.E0,1.E0));
#58=DIRECTION('',(-1.E0,0.E0,0.E0));
#59=AXIS2_PLACEMENT_3D('',#56,#57,#58);
#61=CARTESIAN_POINT('',(0.E0,0.E0,0.E0));
#62=DIRECTION('',(0.E0,0.E0,1.E0));
#63=DIRECTION('',(1.E0,0.E0,0.E0));
#64=AXIS2_PLACEMENT_3D('',#61,#62,#63);
#66=CARTESIAN_POINT('',(0.E0,0.E0,0.E0));
#67=DIRECTION('',(0.E0,0.E0,1.E0));
#68=DIRECTION('',(-1.E0,0.E0,0.E0));
#69=AXIS2_PLACEMENT_3D('',#66,#67,#68);
#71=CARTESIAN_POINT('',(8.E2,3.E2,0.E0));
#72=DIRECTION('',(0.E0,0.E0,1.E0));
#73=DIRECTION('',(1.E0,0.E0,0.E0));
#74=AXIS2_PLACEMENT_3D('',#71,#72,#73);
#76=CARTESIAN_POINT('',(8.E2,3.E2,0.E0));
#77=DIRECTION('',(0.E0,0.E0,1.E0));
#78=DIRECTION('',(-1.E0,0.E0,0.E0));
#79=AXIS2_PLACEMENT_3D('',#76,#77,#78);
#81=DIRECTION('',(0.E0,0.E0,-1.E0));
#82=VECTOR('',#81,1.2E1);
#83=CARTESIAN_POINT('',(-3.622508278236E2,3.E2,1.2E1));
#84=LINE('',#83,#82);
#85=DIRECTION('',(0.E0,0.E0,1.E0));
#86=VECTOR('',#85,1.2E1);
#87=CARTESIAN_POINT('',(7.622508278236E2,3.E2,0.E0));
#88=LINE('',#87,#86);
#89=CARTESIAN_POINT('',(-3.622508278236E2,3.16E2,1.2E1));
#90=DIRECTION('',(0.E0,0.E0,-1.E0));
#91=DIRECTION('',(0.E0,-1.E0,0.E0));
#92=AXIS2_PLACEMENT_3D('',#89,#90,#91);
#94=CARTESIAN_POINT('',(-3.622508278236E2,3.16E2,0.E0));
#95=DIRECTION('',(0.E0,0.E0,1.E0));
#96=DIRECTION('',(-9.207115164964E-1,-3.902439024390E-1,0.E0));
#97=AXIS2_PLACEMENT_3D('',#94,#95,#96);
#99=DIRECTION('',(-1.E0,0.E0,0.E0));
#100=VECTOR('',#99,1.124501655647E3);
#101=CARTESIAN_POINT('',(7.622508278236E2,3.E2,1.2E1));
#102=LINE('',#101,#100);
#103=DIRECTION('',(8.E-1,6.E-1,0.E0));
#104=VECTOR('',#103,4.245016556473E2);
#105=CARTESIAN_POINT('',(4.301993377411E2,2.264950330581E1,1.2E1));
#106=LINE('',#105,#104);
#107=DIRECTION('',(1.E0,0.E0,0.E0));
#108=VECTOR('',#107,3.135168560996E2);
#109=CARTESIAN_POINT('',(3.774917217635E1,0.E0,1.2E1));
#110=LINE('',#109,#108);
#111=DIRECTION('',(8.E-1,-6.E-1,0.E0));
#112=VECTOR('',#111,4.245016556473E2);
#113=CARTESIAN_POINT('',(-3.698006622589E2,2.773504966942E2,1.2E1));
#114=LINE('',#113,#112);
#115=DIRECTION('',(8.E-1,6.E-1,0.E0));
#116=VECTOR('',#115,1.632406613233E2);
#117=CARTESIAN_POINT('',(3.965420241723E2,4.563151812924E1,1.2E1));
#118=LINE('',#117,#116);
#119=DIRECTION('',(-9.306829097510E-1,-3.658269010029E-1,0.E0));
#120=VECTOR('',#119,2.738792600970E2);
#121=CARTESIAN_POINT('',(5.116813228149E2,1.712668414792E2,1.2E1));
#122=LINE('',#121,#120);
#123=DIRECTION('',(9.998365066994E-1,1.808203172225E-2,0.E0));
#124=VECTOR('',#123,1.243225435519E2);
#125=CARTESIAN_POINT('',(2.629291190310E2,4.018612984575E1,1.2E1));
#126=LINE('',#125,#124);
#127=DIRECTION('',(9.306829097510E-1,3.658269010029E-1,0.E0));
#128=VECTOR('',#127,5.216674866632E2);
#129=CARTESIAN_POINT('',(7.148083572090E1,3.968907344398E1,1.2E1));
#130=LINE('',#129,#128);
#131=DIRECTION('',(8.E-1,-6.E-1,0.E0));
#132=VECTOR('',#131,3.180666666667E2);
#133=CARTESIAN_POINT('',(-2.4586E2,2.3262E2,1.2E1));
#134=LINE('',#133,#132);
#135=DIRECTION('',(1.E0,0.E0,0.E0));
#136=VECTOR('',#135,4.743427197152E1);
#137=CARTESIAN_POINT('',(1.819333333333E1,3.858E1,1.2E1));
#138=LINE('',#137,#136);
#139=CARTESIAN_POINT('',(-4.E2,3.E2,1.2E1));
#140=DIRECTION('',(0.E0,0.E0,1.E0));
#141=DIRECTION('',(1.E0,0.E0,0.E0));
#142=AXIS2_PLACEMENT_3D('',#139,#140,#141);
#144=CARTESIAN_POINT('',(-4.E2,3.E2,1.2E1));
#145=DIRECTION('',(0.E0,0.E0,1.E0));
#146=DIRECTION('',(-1.E0,0.E0,0.E0));
#147=AXIS2_PLACEMENT_3D('',#144,#145,#146);
#149=CARTESIAN_POINT('',(4.E2,0.E0,1.2E1));
#150=DIRECTION('',(0.E0,0.E0,1.E0));
#151=DIRECTION('',(1.E0,0.E0,0.E0));
#152=AXIS2_PLACEMENT_3D('',#149,#150,#151);
#154=CARTESIAN_POINT('',(4.E2,0.E0,1.2E1));
#155=DIRECTION('',(0.E0,0.E0,1.E0));
#156=DIRECTION('',(-1.E0,0.E0,0.E0));
#157=AXIS2_PLACEMENT_3D('',#154,#155,#156);
#159=CARTESIAN_POINT('',(0.E0,0.E0,1.2E1));
#160=DIRECTION('',(0.E0,0.E0,1.E0));
#161=DIRECTION('',(1.E0,0.E0,0.E0));
#162=AXIS2_PLACEMENT_3D('',#159,#160,#161);
#164=CARTESIAN_POINT('',(0.E0,0.E0,1.2E1));
#165=DIRECTION('',(0.E0,0.E0,1.E0));
#166=DIRECTION('',(-1.E0,0.E0,0.E0));
#167=AXIS2_PLACEMENT_3D('',#164,#165,#166);
#169=CARTESIAN_POINT('',(8.E2,3.E2,1.2E1));
#170=DIRECTION('',(0.E0,0.E0,1.E0));
#171=DIRECTION('',(1.E0,0.E0,0.E0));
#172=AXIS2_PLACEMENT_3D('',#169,#170,#171);
#174=CARTESIAN_POINT('',(8.E2,3.E2,1.2E1));
#175=DIRECTION('',(0.E0,0.E0,1.E0));
#176=DIRECTION('',(-1.E0,0.E0,0.E0));
#177=AXIS2_PLACEMENT_3D('',#174,#175,#176);
#179=DIRECTION('',(0.E0,0.E0,1.E0));
#180=VECTOR('',#179,1.2E1);
#181=CARTESIAN_POINT('',(-3.874394282067E2,2.783844492038E2,0.E0));
#182=LINE('',#181,#180);
#183=CARTESIAN_POINT('',(-4.E2,3.E2,0.E0));
#184=DIRECTION('',(0.E0,0.E0,-1.E0));
#185=DIRECTION('',(5.024228717334E-1,-8.646220318493E-1,0.E0));
#186=AXIS2_PLACEMENT_3D('',#183,#184,#185);
#188=DIRECTION('',(0.E0,0.E0,-1.E0));
#189=VECTOR('',#188,1.2E1);
#190=CARTESIAN_POINT('',(-3.769822120876E2,3.097560975610E2,1.2E1));
#191=LINE('',#190,#189);
#192=CARTESIAN_POINT('',(-4.E2,3.E2,1.2E1));
#193=DIRECTION('',(0.E0,0.E0,1.E0));
#194=DIRECTION('',(9.207115164964E-1,3.902439024390E-1,0.E0));
#195=AXIS2_PLACEMENT_3D('',#192,#193,#194);
#197=CARTESIAN_POINT('',(-3.794006622589E2,2.645504966942E2,0.E0));
#198=DIRECTION('',(0.E0,0.E0,1.E0));
#199=DIRECTION('',(6.E-1,8.E-1,0.E0));
#200=AXIS2_PLACEMENT_3D('',#197,#198,#199);
#202=CARTESIAN_POINT('',(-3.794006622589E2,2.645504966942E2,1.2E1));
#203=DIRECTION('',(0.E0,0.E0,-1.E0));
#204=DIRECTION('',(-5.024228717342E-1,8.646220318488E-1,0.E0));
#205=AXIS2_PLACEMENT_3D('',#202,#203,#204);
#207=DIRECTION('',(0.E0,0.E0,1.E0));
#208=VECTOR('',#207,1.2E1);
#209=CARTESIAN_POINT('',(-3.698006622589E2,2.773504966942E2,0.E0));
#210=LINE('',#209,#208);
#211=DIRECTION('',(0.E0,0.E0,-1.E0));
#212=VECTOR('',#211,1.2E1);
#213=CARTESIAN_POINT('',(-3.019933774108E1,2.264950330581E1,1.2E1));
#214=LINE('',#213,#212);
#215=CARTESIAN_POINT('',(-3.979933774108E1,9.849503305812E0,1.2E1));
#216=DIRECTION('',(0.E0,0.E0,-1.E0));
#217=DIRECTION('',(6.E-1,8.E-1,0.E0));
#218=AXIS2_PLACEMENT_3D('',#215,#216,#217);
#220=CARTESIAN_POINT('',(-3.979933774108E1,9.849503305812E0,0.E0));
#221=DIRECTION('',(0.E0,0.E0,1.E0));
#222=DIRECTION('',(9.707155546606E-1,-2.402317879466E-1,0.E0));
#223=AXIS2_PLACEMENT_3D('',#220,#221,#222);
#225=DIRECTION('',(0.E0,0.E0,-1.E0));
#226=VECTOR('',#225,1.2E1);
#227=CARTESIAN_POINT('',(-2.426788886651E1,6.005794698666E0,1.2E1));
#228=LINE('',#227,#226);
#229=CARTESIAN_POINT('',(0.E0,0.E0,1.2E1));
#230=DIRECTION('',(0.E0,0.E0,1.E0));
#231=DIRECTION('',(-9.707155546606E-1,2.402317879466E-1,0.E0));
#232=AXIS2_PLACEMENT_3D('',#229,#230,#231);
#234=DIRECTION('',(0.E0,0.E0,1.E0));
#235=VECTOR('',#234,1.2E1);
#236=CARTESIAN_POINT('',(2.301778791241E1,-9.756097560976E0,0.E0));
#237=LINE('',#236,#235);
#238=CARTESIAN_POINT('',(0.E0,0.E0,0.E0));
#239=DIRECTION('',(0.E0,0.E0,-1.E0));
#240=DIRECTION('',(9.207115164964E-1,-3.902439024390E-1,0.E0));
#241=AXIS2_PLACEMENT_3D('',#238,#239,#240);
#243=CARTESIAN_POINT('',(3.774917217635E1,-1.6E1,0.E0));
#244=DIRECTION('',(0.E0,0.E0,1.E0));
#245=DIRECTION('',(0.E0,1.E0,0.E0));
#246=AXIS2_PLACEMENT_3D('',#243,#244,#245);
#248=CARTESIAN_POINT('',(3.774917217635E1,-1.6E1,1.2E1));
#249=DIRECTION('',(0.E0,0.E0,-1.E0));
#250=DIRECTION('',(-9.207115164964E-1,3.902439024390E-1,0.E0));
#251=AXIS2_PLACEMENT_3D('',#248,#249,#250);
#253=DIRECTION('',(0.E0,0.E0,1.E0));
#254=VECTOR('',#253,1.2E1);
#255=CARTESIAN_POINT('',(3.774917217635E1,0.E0,0.E0));
#256=LINE('',#255,#254);
#257=DIRECTION('',(0.E0,0.E0,-1.E0));
#258=VECTOR('',#257,1.2E1);
#259=CARTESIAN_POINT('',(3.512660282760E2,0.E0,1.2E1));
#260=LINE('',#259,#258);
#261=CARTESIAN_POINT('',(3.512660282760E2,-3.5E1,1.2E1));
#262=DIRECTION('',(0.E0,0.E0,-1.E0));
#263=DIRECTION('',(0.E0,1.E0,0.E0));
#264=AXIS2_PLACEMENT_3D('',#261,#262,#263);
#266=CARTESIAN_POINT('',(3.512660282760E2,-3.5E1,0.E0));
#267=DIRECTION('',(0.E0,0.E0,1.E0));
#268=DIRECTION('',(8.122328620676E-1,5.833333333331E-1,0.E0));
#269=AXIS2_PLACEMENT_3D('',#266,#267,#268);
#271=DIRECTION('',(0.E0,0.E0,1.E0));
#272=VECTOR('',#271,1.2E1);
#273=CARTESIAN_POINT('',(4.242678888665E2,6.005794698666E0,0.E0));
#274=LINE('',#273,#272);
#275=CARTESIAN_POINT('',(4.E2,0.E0,0.E0));
#276=DIRECTION('',(0.E0,0.E0,-1.E0));
#277=DIRECTION('',(9.707155546606E-1,2.402317879466E-1,0.E0));
#278=AXIS2_PLACEMENT_3D('',#275,#276,#277);
#280=DIRECTION('',(0.E0,0.E0,-1.E0));
#281=VECTOR('',#280,1.2E1);
#282=CARTESIAN_POINT('',(3.796941784483E2,-1.458333333334E1,1.2E1));
#283=LINE('',#282,#281);
#284=CARTESIAN_POINT('',(4.E2,0.E0,1.2E1));
#285=DIRECTION('',(0.E0,0.E0,1.E0));
#286=DIRECTION('',(-8.122328620672E-1,-5.833333333336E-1,0.E0));
#287=AXIS2_PLACEMENT_3D('',#284,#285,#286);
#289=CARTESIAN_POINT('',(4.397993377411E2,9.849503305812E0,0.E0));
#290=DIRECTION('',(0.E0,0.E0,1.E0));
#291=DIRECTION('',(-6.E-1,8.E-1,0.E0));
#292=AXIS2_PLACEMENT_3D('',#289,#290,#291);
#294=CARTESIAN_POINT('',(4.397993377411E2,9.849503305812E0,1.2E1));
#295=DIRECTION('',(0.E0,0.E0,-1.E0));
#296=DIRECTION('',(-9.707155546606E-1,-2.402317879466E-1,0.E0));
#297=AXIS2_PLACEMENT_3D('',#294,#295,#296);
#299=DIRECTION('',(0.E0,0.E0,-1.E0));
#300=VECTOR('',#299,1.2E1);
#301=CARTESIAN_POINT('',(7.698006622589E2,2.773504966942E2,1.2E1));
#302=LINE('',#301,#300);
#303=DIRECTION('',(0.E0,0.E0,1.E0));
#304=VECTOR('',#303,1.2E1);
#305=CARTESIAN_POINT('',(4.301993377411E2,2.264950330581E1,0.E0));
#306=LINE('',#305,#304);
#307=CARTESIAN_POINT('',(7.794006622589E2,2.645504966942E2,1.2E1));
#308=DIRECTION('',(0.E0,0.E0,-1.E0));
#309=DIRECTION('',(-6.E-1,8.E-1,0.E0));
#310=AXIS2_PLACEMENT_3D('',#307,#308,#309);
#312=CARTESIAN_POINT('',(7.794006622589E2,2.645504966942E2,0.E0));
#313=DIRECTION('',(0.E0,0.E0,1.E0));
#314=DIRECTION('',(5.024228717337E-1,8.646220318491E-1,0.E0));
#315=AXIS2_PLACEMENT_3D('',#312,#313,#314);
#317=DIRECTION('',(0.E0,0.E0,-1.E0));
#318=VECTOR('',#317,1.2E1);
#319=CARTESIAN_POINT('',(7.874394282067E2,2.783844492038E2,1.2E1));
#320=LINE('',#319,#318);
#321=CARTESIAN_POINT('',(8.E2,3.E2,1.2E1));
#322=DIRECTION('',(0.E0,0.E0,1.E0));
#323=DIRECTION('',(-5.024228717338E-1,-8.646220318491E-1,0.E0));
#324=AXIS2_PLACEMENT_3D('',#321,#322,#323);
#326=DIRECTION('',(0.E0,0.E0,1.E0));
#327=VECTOR('',#326,1.2E1);
#328=CARTESIAN_POINT('',(7.769822120876E2,3.097560975610E2,0.E0));
#329=LINE('',#328,#327);
#330=CARTESIAN_POINT('',(8.E2,3.E2,0.E0));
#331=DIRECTION('',(0.E0,0.E0,-1.E0));
#332=DIRECTION('',(-9.207115164964E-1,3.902439024390E-1,0.E0));
#333=AXIS2_PLACEMENT_3D('',#330,#331,#332);
#335=CARTESIAN_POINT('',(7.622508278236E2,3.16E2,0.E0));
#336=DIRECTION('',(0.E0,0.E0,1.E0));
#337=DIRECTION('',(0.E0,-1.E0,0.E0));
#338=AXIS2_PLACEMENT_3D('',#335,#336,#337);
#340=CARTESIAN_POINT('',(7.622508278236E2,3.16E2,1.2E1));
#341=DIRECTION('',(0.E0,0.E0,-1.E0));
#342=DIRECTION('',(9.207115164964E-1,-3.902439024390E-1,0.E0));
#343=AXIS2_PLACEMENT_3D('',#340,#341,#342);
#345=DIRECTION('',(0.E0,0.E0,-1.E0));
#346=VECTOR('',#345,1.2E1);
#347=CARTESIAN_POINT('',(3.965420241723E2,4.563151812924E1,1.2E1));
#348=LINE('',#347,#346);
#349=DIRECTION('',(0.E0,0.E0,-1.E0));
#350=VECTOR('',#349,1.2E1);
#351=CARTESIAN_POINT('',(5.271345532309E2,1.435759149232E2,1.2E1));
#352=LINE('',#351,#350);
#353=CARTESIAN_POINT('',(3.869420241723E2,5.843151812924E1,1.2E1));
#354=DIRECTION('',(0.E0,0.E0,-1.E0));
#355=DIRECTION('',(6.E-1,-8.E-1,0.E0));
#356=AXIS2_PLACEMENT_3D('',#353,#354,#355);
#358=CARTESIAN_POINT('',(3.869420241723E2,5.843151812924E1,0.E0));
#359=DIRECTION('',(0.E0,0.E0,1.E0));
#360=DIRECTION('',(1.808203172226E-2,-9.998365066994E-1,0.E0));
#361=AXIS2_PLACEMENT_3D('',#358,#359,#360);
#363=DIRECTION('',(0.E0,0.E0,-1.E0));
#364=VECTOR('',#363,1.2E1);
#365=CARTESIAN_POINT('',(3.872313366799E2,4.243413402205E1,1.2E1));
#366=LINE('',#365,#364);
#367=DIRECTION('',(0.E0,0.E0,-1.E0));
#368=VECTOR('',#367,1.2E1);
#369=CARTESIAN_POINT('',(2.629291190310E2,4.018612984575E1,1.2E1));
#370=LINE('',#369,#368);
#371=CARTESIAN_POINT('',(2.626398065234E2,5.618351395294E1,1.2E1));
#372=DIRECTION('',(0.E0,0.E0,-1.E0));
#373=DIRECTION('',(1.808203172225E-2,-9.998365066994E-1,0.E0));
#374=AXIS2_PLACEMENT_3D('',#371,#372,#373);
#376=CARTESIAN_POINT('',(2.626398065234E2,5.618351395294E1,0.E0));
#377=DIRECTION('',(0.E0,0.E0,1.E0));
#378=DIRECTION('',(-3.658269010029E-1,9.306829097510E-1,0.E0));
#379=AXIS2_PLACEMENT_3D('',#376,#377,#378);
#381=DIRECTION('',(0.E0,0.E0,-1.E0));
#382=VECTOR('',#381,1.2E1);
#383=CARTESIAN_POINT('',(5.116813228149E2,1.712668414792E2,1.2E1));
#384=LINE('',#383,#382);
#385=DIRECTION('',(0.E0,0.E0,-1.E0));
#386=VECTOR('',#385,1.2E1);
#387=CARTESIAN_POINT('',(2.567865761074E2,7.107444050896E1,1.2E1));
#388=LINE('',#387,#386);
#389=CARTESIAN_POINT('',(5.175345532309E2,1.563759149232E2,1.2E1));
#390=DIRECTION('',(0.E0,0.E0,-1.E0));
#391=DIRECTION('',(-3.658269010029E-1,9.306829097510E-1,0.E0));
#392=AXIS2_PLACEMENT_3D('',#389,#390,#391);
#394=CARTESIAN_POINT('',(5.175345532309E2,1.563759149232E2,
-2.131628207280E-14));
#395=DIRECTION('',(0.E0,0.E0,1.E0));
#396=DIRECTION('',(6.E-1,-8.E-1,0.E0));
#397=AXIS2_PLACEMENT_3D('',#394,#395,#396);
#399=DIRECTION('',(0.E0,0.E0,-1.E0));
#400=VECTOR('',#399,1.2E1);
#401=CARTESIAN_POINT('',(5.569878501311E2,2.305290734440E2,1.2E1));
#402=LINE('',#401,#400);
#403=DIRECTION('',(0.E0,0.E0,-1.E0));
#404=VECTOR('',#403,1.2E1);
#405=CARTESIAN_POINT('',(7.148083572090E1,3.968907344398E1,1.2E1));
#406=LINE('',#405,#404);
#407=CARTESIAN_POINT('',(5.511346197151E2,2.4542E2,1.2E1));
#408=DIRECTION('',(0.E0,0.E0,-1.E0));
#409=DIRECTION('',(0.E0,1.E0,0.E0));
#410=AXIS2_PLACEMENT_3D('',#407,#408,#409);
#412=CARTESIAN_POINT('',(5.511346197151E2,2.4542E2,0.E0));
#413=DIRECTION('',(0.E0,0.E0,1.E0));
#414=DIRECTION('',(3.658269010029E-1,-9.306829097510E-1,0.E0));
#415=AXIS2_PLACEMENT_3D('',#412,#413,#414);
#417=DIRECTION('',(0.E0,0.E0,-1.E0));
#418=VECTOR('',#417,1.2E1);
#419=CARTESIAN_POINT('',(5.511346197151E2,2.6142E2,1.2E1));
#420=LINE('',#419,#418);
#421=DIRECTION('',(-1.E0,0.E0,0.E0));
#422=VECTOR('',#421,7.873946197151E2);
#423=CARTESIAN_POINT('',(5.511346197151E2,2.6142E2,0.E0));
#424=LINE('',#423,#422);
#425=DIRECTION('',(0.E0,0.E0,-1.E0));
#426=VECTOR('',#425,1.2E1);
#427=CARTESIAN_POINT('',(-2.3626E2,2.6142E2,1.2E1));
#428=LINE('',#427,#426);
#429=DIRECTION('',(1.E0,0.E0,0.E0));
#430=VECTOR('',#429,7.873946197151E2);
#431=CARTESIAN_POINT('',(-2.3626E2,2.6142E2,1.2E1));
#432=LINE('',#431,#430);
#433=CARTESIAN_POINT('',(-2.3626E2,2.4542E2,1.2E1));
#434=DIRECTION('',(0.E0,0.E0,-1.E0));
#435=DIRECTION('',(-6.E-1,-8.E-1,0.E0));
#436=AXIS2_PLACEMENT_3D('',#433,#434,#435);
#438=CARTESIAN_POINT('',(-2.3626E2,2.4542E2,0.E0));
#439=DIRECTION('',(0.E0,0.E0,1.E0));
#440=DIRECTION('',(0.E0,1.E0,0.E0));
#441=AXIS2_PLACEMENT_3D('',#438,#439,#440);
#443=DIRECTION('',(0.E0,0.E0,-1.E0));
#444=VECTOR('',#443,1.2E1);
#445=CARTESIAN_POINT('',(8.593333333333E0,4.178E1,1.2E1));
#446=LINE('',#445,#444);
#447=DIRECTION('',(0.E0,0.E0,-1.E0));
#448=VECTOR('',#447,1.2E1);
#449=CARTESIAN_POINT('',(-2.4586E2,2.3262E2,1.2E1));
#450=LINE('',#449,#448);
#451=CARTESIAN_POINT('',(1.819333333333E1,5.458E1,1.2E1));
#452=DIRECTION('',(0.E0,0.E0,-1.E0));
#453=DIRECTION('',(0.E0,-1.E0,0.E0));
#454=AXIS2_PLACEMENT_3D('',#451,#452,#453);
#456=CARTESIAN_POINT('',(1.819333333333E1,5.458E1,0.E0));
#457=DIRECTION('',(0.E0,0.E0,1.E0));
#458=DIRECTION('',(-6.E-1,-8.E-1,0.E0));
#459=AXIS2_PLACEMENT_3D('',#456,#457,#458);
#461=DIRECTION('',(0.E0,0.E0,-1.E0));
#462=VECTOR('',#461,1.2E1);
#463=CARTESIAN_POINT('',(1.819333333333E1,3.858E1,1.2E1));
#464=LINE('',#463,#462);
#465=DIRECTION('',(0.E0,0.E0,-1.E0));
#466=VECTOR('',#465,1.2E1);
#467=CARTESIAN_POINT('',(6.562760530485E1,3.858E1,1.2E1));
#468=LINE('',#467,#466);
#469=CARTESIAN_POINT('',(6.562760530485E1,5.458E1,1.2E1));
#470=DIRECTION('',(0.E0,0.E0,-1.E0));
#471=DIRECTION('',(3.658269010029E-1,-9.306829097510E-1,0.E0));
#472=AXIS2_PLACEMENT_3D('',#469,#470,#471);
#474=CARTESIAN_POINT('',(6.562760530485E1,5.458E1,0.E0));
#475=DIRECTION('',(0.E0,0.E0,1.E0));
#476=DIRECTION('',(0.E0,-1.E0,0.E0));
#477=AXIS2_PLACEMENT_3D('',#474,#475,#476);
#479=DIRECTION('',(0.E0,0.E0,-1.E0));
#480=VECTOR('',#479,1.2E1);
#481=CARTESIAN_POINT('',(-3.975E2,3.E2,1.2E1));
#482=LINE('',#481,#480);
#483=DIRECTION('',(0.E0,0.E0,-1.E0));
#484=VECTOR('',#483,1.2E1);
#485=CARTESIAN_POINT('',(-4.025E2,3.E2,1.2E1));
#486=LINE('',#485,#484);
#487=DIRECTION('',(0.E0,0.E0,-1.E0));
#488=VECTOR('',#487,1.2E1);
#489=CARTESIAN_POINT('',(4.025E2,0.E0,1.2E1));
#490=LINE('',#489,#488);
#491=DIRECTION('',(0.E0,0.E0,-1.E0));
#492=VECTOR('',#491,1.2E1);
#493=CARTESIAN_POINT('',(3.975E2,0.E0,1.2E1));
#494=LINE('',#493,#492);
#495=DIRECTION('',(0.E0,0.E0,-1.E0));
#496=VECTOR('',#495,1.2E1);
#497=CARTESIAN_POINT('',(2.5E0,0.E0,1.2E1));
#498=LINE('',#497,#496);
#499=DIRECTION('',(0.E0,0.E0,-1.E0));
#500=VECTOR('',#499,1.2E1);
#501=CARTESIAN_POINT('',(-2.5E0,0.E0,1.2E1));
#502=LINE('',#501,#500);
#503=DIRECTION('',(0.E0,0.E0,-1.E0));
#504=VECTOR('',#503,1.2E1);
#505=CARTESIAN_POINT('',(8.025E2,3.E2,1.2E1));
#506=LINE('',#505,#504);
#507=DIRECTION('',(0.E0,0.E0,-1.E0));
#508=VECTOR('',#507,1.2E1);
#509=CARTESIAN_POINT('',(7.975E2,3.E2,1.2E1));
#510=LINE('',#509,#508);
#511=CARTESIAN_POINT('',(-3.698006622589E2,2.773504966942E2,0.E0));
#512=CARTESIAN_POINT('',(-3.698006622589E2,2.773504966942E2,1.2E1));
#513=VERTEX_POINT('',#511);
#514=VERTEX_POINT('',#512);
#515=CARTESIAN_POINT('',(-3.874394282067E2,2.783844492038E2,0.E0));
#516=CARTESIAN_POINT('',(-3.874394282067E2,2.783844492038E2,1.2E1));
#517=VERTEX_POINT('',#515);
#518=VERTEX_POINT('',#516);
#519=CARTESIAN_POINT('',(-3.622508278236E2,3.E2,1.2E1));
#520=CARTESIAN_POINT('',(-3.622508278236E2,3.E2,0.E0));
#521=VERTEX_POINT('',#519);
#522=VERTEX_POINT('',#520);
#523=CARTESIAN_POINT('',(-3.769822120876E2,3.097560975610E2,1.2E1));
#524=CARTESIAN_POINT('',(-3.769822120876E2,3.097560975610E2,0.E0));
#525=VERTEX_POINT('',#523);
#526=VERTEX_POINT('',#524);
#527=CARTESIAN_POINT('',(7.698006622589E2,2.773504966942E2,1.2E1));
#528=CARTESIAN_POINT('',(7.698006622589E2,2.773504966942E2,0.E0));
#529=VERTEX_POINT('',#527);
#530=VERTEX_POINT('',#528);
#531=CARTESIAN_POINT('',(7.874394282067E2,2.783844492038E2,1.2E1));
#532=CARTESIAN_POINT('',(7.874394282067E2,2.783844492038E2,0.E0));
#533=VERTEX_POINT('',#531);
#534=VERTEX_POINT('',#532);
#535=CARTESIAN_POINT('',(7.622508278236E2,3.E2,0.E0));
#536=CARTESIAN_POINT('',(7.622508278236E2,3.E2,1.2E1));
#537=VERTEX_POINT('',#535);
#538=VERTEX_POINT('',#536);
#539=CARTESIAN_POINT('',(7.769822120876E2,3.097560975610E2,0.E0));
#540=CARTESIAN_POINT('',(7.769822120876E2,3.097560975610E2,1.2E1));
#541=VERTEX_POINT('',#539);
#542=VERTEX_POINT('',#540);
#543=CARTESIAN_POINT('',(4.301993377411E2,2.264950330581E1,0.E0));
#544=VERTEX_POINT('',#543);
#545=CARTESIAN_POINT('',(-3.019933774108E1,2.264950330581E1,0.E0));
#546=VERTEX_POINT('',#545);
#547=CARTESIAN_POINT('',(4.301993377411E2,2.264950330581E1,1.2E1));
#548=VERTEX_POINT('',#547);
#549=CARTESIAN_POINT('',(-3.019933774108E1,2.264950330581E1,1.2E1));
#550=VERTEX_POINT('',#549);
#551=CARTESIAN_POINT('',(-2.426788886651E1,6.005794698666E0,1.2E1));
#552=CARTESIAN_POINT('',(-2.426788886651E1,6.005794698666E0,0.E0));
#553=VERTEX_POINT('',#551);
#554=VERTEX_POINT('',#552);
#555=CARTESIAN_POINT('',(3.774917217635E1,0.E0,0.E0));
#556=CARTESIAN_POINT('',(3.774917217635E1,0.E0,1.2E1));
#557=VERTEX_POINT('',#555);
#558=VERTEX_POINT('',#556);
#559=CARTESIAN_POINT('',(2.301778791241E1,-9.756097560976E0,0.E0));
#560=CARTESIAN_POINT('',(2.301778791241E1,-9.756097560976E0,1.2E1));
#561=VERTEX_POINT('',#559);
#562=VERTEX_POINT('',#560);
#563=CARTESIAN_POINT('',(4.242678888665E2,6.005794698666E0,0.E0));
#564=CARTESIAN_POINT('',(4.242678888665E2,6.005794698666E0,1.2E1));
#565=VERTEX_POINT('',#563);
#566=VERTEX_POINT('',#564);
#567=CARTESIAN_POINT('',(3.512660282760E2,0.E0,1.2E1));
#568=CARTESIAN_POINT('',(3.512660282760E2,0.E0,0.E0));
#569=VERTEX_POINT('',#567);
#570=VERTEX_POINT('',#568);
#571=CARTESIAN_POINT('',(3.796941784483E2,-1.458333333334E1,1.2E1));
#572=CARTESIAN_POINT('',(3.796941784483E2,-1.458333333334E1,0.E0));
#573=VERTEX_POINT('',#571);
#574=VERTEX_POINT('',#572);
#575=CARTESIAN_POINT('',(3.965420241723E2,4.563151812924E1,1.2E1));
#576=CARTESIAN_POINT('',(3.965420241723E2,4.563151812924E1,0.E0));
#577=VERTEX_POINT('',#575);
#578=VERTEX_POINT('',#576);
#579=CARTESIAN_POINT('',(3.872313366799E2,4.243413402205E1,1.2E1));
#580=CARTESIAN_POINT('',(3.872313366799E2,4.243413402205E1,0.E0));
#581=VERTEX_POINT('',#579);
#582=VERTEX_POINT('',#580);
#583=CARTESIAN_POINT('',(5.511346197151E2,2.6142E2,1.2E1));
#584=CARTESIAN_POINT('',(5.511346197151E2,2.6142E2,0.E0));
#585=VERTEX_POINT('',#583);
#586=VERTEX_POINT('',#584);
#587=CARTESIAN_POINT('',(5.569878501311E2,2.305290734440E2,1.2E1));
#588=CARTESIAN_POINT('',(5.569878501311E2,2.305290734440E2,0.E0));
#589=VERTEX_POINT('',#587);
#590=VERTEX_POINT('',#588);
#591=CARTESIAN_POINT('',(5.116813228149E2,1.712668414792E2,1.2E1));
#592=CARTESIAN_POINT('',(5.116813228149E2,1.712668414792E2,0.E0));
#593=VERTEX_POINT('',#591);
#594=VERTEX_POINT('',#592);
#595=CARTESIAN_POINT('',(5.271345532309E2,1.435759149232E2,1.2E1));
#596=CARTESIAN_POINT('',(5.271345532309E2,1.435759149232E2,0.E0));
#597=VERTEX_POINT('',#595);
#598=VERTEX_POINT('',#596);
#599=CARTESIAN_POINT('',(2.629291190310E2,4.018612984575E1,1.2E1));
#600=CARTESIAN_POINT('',(2.629291190310E2,4.018612984575E1,0.E0));
#601=VERTEX_POINT('',#599);
#602=VERTEX_POINT('',#600);
#603=CARTESIAN_POINT('',(2.567865761074E2,7.107444050896E1,1.2E1));
#604=CARTESIAN_POINT('',(2.567865761074E2,7.107444050896E1,0.E0));
#605=VERTEX_POINT('',#603);
#606=VERTEX_POINT('',#604);
#607=CARTESIAN_POINT('',(1.819333333333E1,3.858E1,1.2E1));
#608=CARTESIAN_POINT('',(1.819333333333E1,3.858E1,0.E0));
#609=VERTEX_POINT('',#607);
#610=VERTEX_POINT('',#608);
#611=CARTESIAN_POINT('',(8.593333333333E0,4.178E1,1.2E1));
#612=CARTESIAN_POINT('',(8.593333333333E0,4.178E1,0.E0));
#613=VERTEX_POINT('',#611);
#614=VERTEX_POINT('',#612);
#615=CARTESIAN_POINT('',(7.148083572090E1,3.968907344398E1,1.2E1));
#616=CARTESIAN_POINT('',(7.148083572090E1,3.968907344398E1,0.E0));
#617=VERTEX_POINT('',#615);
#618=VERTEX_POINT('',#616);
#619=CARTESIAN_POINT('',(6.562760530485E1,3.858E1,1.2E1));
#620=CARTESIAN_POINT('',(6.562760530485E1,3.858E1,0.E0));
#621=VERTEX_POINT('',#619);
#622=VERTEX_POINT('',#620);
#623=CARTESIAN_POINT('',(-2.4586E2,2.3262E2,1.2E1));
#624=CARTESIAN_POINT('',(-2.4586E2,2.3262E2,0.E0));
#625=VERTEX_POINT('',#623);
#626=VERTEX_POINT('',#624);
#627=CARTESIAN_POINT('',(-2.3626E2,2.6142E2,1.2E1));
#628=CARTESIAN_POINT('',(-2.3626E2,2.6142E2,0.E0));
#629=VERTEX_POINT('',#627);
#630=VERTEX_POINT('',#628);
#631=CARTESIAN_POINT('',(-3.975E2,3.E2,0.E0));
#632=CARTESIAN_POINT('',(-4.025E2,3.E2,0.E0));
#633=VERTEX_POINT('',#631);
#634=VERTEX_POINT('',#632);
#635=CARTESIAN_POINT('',(4.025E2,0.E0,0.E0));
#636=CARTESIAN_POINT('',(3.975E2,0.E0,0.E0));
#637=VERTEX_POINT('',#635);
#638=VERTEX_POINT('',#636);
#639=CARTESIAN_POINT('',(2.5E0,0.E0,0.E0));
#640=CARTESIAN_POINT('',(-2.5E0,0.E0,0.E0));
#641=VERTEX_POINT('',#639);
#642=VERTEX_POINT('',#640);
#643=CARTESIAN_POINT('',(8.025E2,3.E2,0.E0));
#644=CARTESIAN_POINT('',(7.975E2,3.E2,0.E0));
#645=VERTEX_POINT('',#643);
#646=VERTEX_POINT('',#644);
#647=CARTESIAN_POINT('',(-3.975E2,3.E2,1.2E1));
#648=CARTESIAN_POINT('',(-4.025E2,3.E2,1.2E1));
#649=VERTEX_POINT('',#647);
#650=VERTEX_POINT('',#648);
#651=CARTESIAN_POINT('',(4.025E2,0.E0,1.2E1));
#652=CARTESIAN_POINT('',(3.975E2,0.E0,1.2E1));
#653=VERTEX_POINT('',#651);
#654=VERTEX_POINT('',#652);
#655=CARTESIAN_POINT('',(2.5E0,0.E0,1.2E1));
#656=CARTESIAN_POINT('',(-2.5E0,0.E0,1.2E1));
#657=VERTEX_POINT('',#655);
#658=VERTEX_POINT('',#656);
#659=CARTESIAN_POINT('',(8.025E2,3.E2,1.2E1));
#660=CARTESIAN_POINT('',(7.975E2,3.E2,1.2E1));
#661=VERTEX_POINT('',#659);
#662=VERTEX_POINT('',#660);
#663=CARTESIAN_POINT('',(0.E0,0.E0,0.E0));
#664=DIRECTION('',(0.E0,0.E0,1.E0));
#665=DIRECTION('',(1.E0,0.E0,0.E0));
#666=AXIS2_PLACEMENT_3D('',#663,#664,#665);
#667=PLANE('',#666);
#669=ORIENTED_EDGE('',*,*,#668,.T.);
#671=ORIENTED_EDGE('',*,*,#670,.F.);
#673=ORIENTED_EDGE('',*,*,#672,.F.);
#675=ORIENTED_EDGE('',*,*,#674,.F.);
#677=ORIENTED_EDGE('',*,*,#676,.T.);
#679=ORIENTED_EDGE('',*,*,#678,.F.);
#681=ORIENTED_EDGE('',*,*,#680,.F.);
#683=ORIENTED_EDGE('',*,*,#682,.F.);
#685=ORIENTED_EDGE('',*,*,#684,.T.);
#687=ORIENTED_EDGE('',*,*,#686,.F.);
#689=ORIENTED_EDGE('',*,*,#688,.F.);
#691=ORIENTED_EDGE('',*,*,#690,.F.);
#693=ORIENTED_EDGE('',*,*,#692,.T.);
#695=ORIENTED_EDGE('',*,*,#694,.F.);
#697=ORIENTED_EDGE('',*,*,#696,.F.);
#699=ORIENTED_EDGE('',*,*,#698,.F.);
#700=EDGE_LOOP('',(#669,#671,#673,#675,#677,#679,#681,#683,#685,#687,#689,#691,
#693,#695,#697,#699));
#701=FACE_OUTER_BOUND('',#700,.F.);
#703=ORIENTED_EDGE('',*,*,#702,.F.);
#705=ORIENTED_EDGE('',*,*,#704,.F.);
#707=ORIENTED_EDGE('',*,*,#706,.F.);
#709=ORIENTED_EDGE('',*,*,#708,.F.);
#711=ORIENTED_EDGE('',*,*,#710,.F.);
#713=ORIENTED_EDGE('',*,*,#712,.F.);
#714=EDGE_LOOP('',(#703,#705,#707,#709,#711,#713));
#715=FACE_BOUND('',#714,.F.);
#717=ORIENTED_EDGE('',*,*,#716,.F.);
#719=ORIENTED_EDGE('',*,*,#718,.F.);
#721=ORIENTED_EDGE('',*,*,#720,.F.);
#723=ORIENTED_EDGE('',*,*,#722,.F.);
#725=ORIENTED_EDGE('',*,*,#724,.F.);
#727=ORIENTED_EDGE('',*,*,#726,.F.);
#729=ORIENTED_EDGE('',*,*,#728,.F.);
#731=ORIENTED_EDGE('',*,*,#730,.F.);
#732=EDGE_LOOP('',(#717,#719,#721,#723,#725,#727,#729,#731));
#733=FACE_BOUND('',#732,.F.);
#735=ORIENTED_EDGE('',*,*,#734,.F.);
#737=ORIENTED_EDGE('',*,*,#736,.F.);
#738=EDGE_LOOP('',(#735,#737));
#739=FACE_BOUND('',#738,.F.);
#741=ORIENTED_EDGE('',*,*,#740,.F.);
#743=ORIENTED_EDGE('',*,*,#742,.F.);
#744=EDGE_LOOP('',(#741,#743));
#745=FACE_BOUND('',#744,.F.);
#747=ORIENTED_EDGE('',*,*,#746,.F.);
#749=ORIENTED_EDGE('',*,*,#748,.F.);
#750=EDGE_LOOP('',(#747,#749));
#751=FACE_BOUND('',#750,.F.);
#753=ORIENTED_EDGE('',*,*,#752,.F.);
#755=ORIENTED_EDGE('',*,*,#754,.F.);
#756=EDGE_LOOP('',(#753,#755));
#757=FACE_BOUND('',#756,.F.);
#758=ADVANCED_FACE('',(#701,#715,#733,#739,#745,#751,#757),#667,.F.);
#759=CARTESIAN_POINT('',(8.E2,3.E2,0.E0));
#760=DIRECTION('',(0.E0,1.E0,0.E0));
#761=DIRECTION('',(-1.E0,0.E0,0.E0));
#762=AXIS2_PLACEMENT_3D('',#759,#760,#761);
#763=PLANE('',#762);
#765=ORIENTED_EDGE('',*,*,#764,.T.);
#766=ORIENTED_EDGE('',*,*,#668,.F.);
#768=ORIENTED_EDGE('',*,*,#767,.T.);
#770=ORIENTED_EDGE('',*,*,#769,.T.);
#771=EDGE_LOOP('',(#765,#766,#768,#770));
#772=FACE_OUTER_BOUND('',#771,.F.);
#773=ADVANCED_FACE('',(#772),#763,.T.);
#774=CARTESIAN_POINT('',(-3.622508278236E2,3.16E2,3.24528E1));
#775=DIRECTION('',(0.E0,0.E0,-1.E0));
#776=DIRECTION('',(0.E0,-1.E0,0.E0));
#777=AXIS2_PLACEMENT_3D('',#774,#775,#776);
#778=CYLINDRICAL_SURFACE('',#777,1.6E1);
#779=ORIENTED_EDGE('',*,*,#764,.F.);
#781=ORIENTED_EDGE('',*,*,#780,.T.);
#783=ORIENTED_EDGE('',*,*,#782,.T.);
#784=ORIENTED_EDGE('',*,*,#670,.T.);
#785=EDGE_LOOP('',(#779,#781,#783,#784));
#786=FACE_OUTER_BOUND('',#785,.F.);
#787=ADVANCED_FACE('',(#786),#778,.F.);
#788=CARTESIAN_POINT('',(0.E0,0.E0,1.2E1));
#789=DIRECTION('',(0.E0,0.E0,1.E0));
#790=DIRECTION('',(1.E0,0.E0,0.E0));
#791=AXIS2_PLACEMENT_3D('',#788,#789,#790);
#792=PLANE('',#791);
#794=ORIENTED_EDGE('',*,*,#793,.F.);
#795=ORIENTED_EDGE('',*,*,#780,.F.);
#796=ORIENTED_EDGE('',*,*,#769,.F.);
#798=ORIENTED_EDGE('',*,*,#797,.F.);
#800=ORIENTED_EDGE('',*,*,#799,.F.);
#802=ORIENTED_EDGE('',*,*,#801,.F.);
#804=ORIENTED_EDGE('',*,*,#803,.F.);
#806=ORIENTED_EDGE('',*,*,#805,.F.);
#808=ORIENTED_EDGE('',*,*,#807,.F.);
#810=ORIENTED_EDGE('',*,*,#809,.F.);
#812=ORIENTED_EDGE('',*,*,#811,.F.);
#814=ORIENTED_EDGE('',*,*,#813,.F.);
#816=ORIENTED_EDGE('',*,*,#815,.F.);
#818=ORIENTED_EDGE('',*,*,#817,.F.);
#820=ORIENTED_EDGE('',*,*,#819,.F.);
#822=ORIENTED_EDGE('',*,*,#821,.F.);
#823=EDGE_LOOP('',(#794,#795,#796,#798,#800,#802,#804,#806,#808,#810,#812,#814,
#816,#818,#820,#822));
#824=FACE_OUTER_BOUND('',#823,.F.);
#826=ORIENTED_EDGE('',*,*,#825,.T.);
#828=ORIENTED_EDGE('',*,*,#827,.F.);
#830=ORIENTED_EDGE('',*,*,#829,.T.);
#832=ORIENTED_EDGE('',*,*,#831,.F.);
#834=ORIENTED_EDGE('',*,*,#833,.T.);
#836=ORIENTED_EDGE('',*,*,#835,.F.);
#837=EDGE_LOOP('',(#826,#828,#830,#832,#834,#836));
#838=FACE_BOUND('',#837,.F.);
#840=ORIENTED_EDGE('',*,*,#839,.T.);
#842=ORIENTED_EDGE('',*,*,#841,.F.);
#844=ORIENTED_EDGE('',*,*,#843,.F.);
#846=ORIENTED_EDGE('',*,*,#845,.F.);
#848=ORIENTED_EDGE('',*,*,#847,.T.);
#850=ORIENTED_EDGE('',*,*,#849,.F.);
#852=ORIENTED_EDGE('',*,*,#851,.T.);
#854=ORIENTED_EDGE('',*,*,#853,.F.);
#855=EDGE_LOOP('',(#840,#842,#844,#846,#848,#850,#852,#854));
#856=FACE_BOUND('',#855,.F.);
#858=ORIENTED_EDGE('',*,*,#857,.T.);
#860=ORIENTED_EDGE('',*,*,#859,.T.);
#861=EDGE_LOOP('',(#858,#860));
#862=FACE_BOUND('',#861,.F.);
#864=ORIENTED_EDGE('',*,*,#863,.T.);
#866=ORIENTED_EDGE('',*,*,#865,.T.);
#867=EDGE_LOOP('',(#864,#866));
#868=FACE_BOUND('',#867,.F.);
#870=ORIENTED_EDGE('',*,*,#869,.T.);
#872=ORIENTED_EDGE('',*,*,#871,.T.);
#873=EDGE_LOOP('',(#870,#872));
#874=FACE_BOUND('',#873,.F.);
#876=ORIENTED_EDGE('',*,*,#875,.T.);
#878=ORIENTED_EDGE('',*,*,#877,.T.);
#879=EDGE_LOOP('',(#876,#878));
#880=FACE_BOUND('',#879,.F.);
#881=ADVANCED_FACE('',(#824,#838,#856,#862,#868,#874,#880),#792,.T.);
#882=CARTESIAN_POINT('',(-4.E2,3.E2,1.2E1));
#883=DIRECTION('',(0.E0,0.E0,1.E0));
#884=DIRECTION('',(1.E0,0.E0,0.E0));
#885=AXIS2_PLACEMENT_3D('',#882,#883,#884);
#886=CYLINDRICAL_SURFACE('',#885,2.5E1);
#888=ORIENTED_EDGE('',*,*,#887,.F.);
#889=ORIENTED_EDGE('',*,*,#672,.T.);
#890=ORIENTED_EDGE('',*,*,#782,.F.);
#891=ORIENTED_EDGE('',*,*,#793,.T.);
#892=EDGE_LOOP('',(#888,#889,#890,#891));
#893=FACE_OUTER_BOUND('',#892,.F.);
#894=ADVANCED_FACE('',(#893),#886,.T.);
#895=CARTESIAN_POINT('',(-3.794006622589E2,2.645504966942E2,-2.04528E1));
#896=DIRECTION('',(0.E0,0.E0,1.E0));
#897=DIRECTION('',(6.E-1,8.E-1,0.E0));
#898=AXIS2_PLACEMENT_3D('',#895,#896,#897);
#899=CYLINDRICAL_SURFACE('',#898,1.6E1);
#901=ORIENTED_EDGE('',*,*,#900,.F.);
#902=ORIENTED_EDGE('',*,*,#674,.T.);
#903=ORIENTED_EDGE('',*,*,#887,.T.);
#904=ORIENTED_EDGE('',*,*,#821,.T.);
#905=EDGE_LOOP('',(#901,#902,#903,#904));
#906=FACE_OUTER_BOUND('',#905,.F.);
#907=ADVANCED_FACE('',(#906),#899,.F.);
#908=CARTESIAN_POINT('',(-4.E2,3.E2,0.E0));
#909=DIRECTION('',(-6.E-1,-8.E-1,0.E0));
#910=DIRECTION('',(8.E-1,-6.E-1,0.E0));
#911=AXIS2_PLACEMENT_3D('',#908,#909,#910);
#912=PLANE('',#911);
#913=ORIENTED_EDGE('',*,*,#900,.T.);
#914=ORIENTED_EDGE('',*,*,#819,.T.);
#916=ORIENTED_EDGE('',*,*,#915,.T.);
#917=ORIENTED_EDGE('',*,*,#676,.F.);
#918=EDGE_LOOP('',(#913,#914,#916,#917));
#919=FACE_OUTER_BOUND('',#918,.F.);
#920=ADVANCED_FACE('',(#919),#912,.T.);
#921=CARTESIAN_POINT('',(-3.979933774108E1,9.849503305812E0,3.24528E1));
#922=DIRECTION('',(0.E0,0.E0,-1.E0));
#923=DIRECTION('',(6.E-1,8.E-1,0.E0));
#924=AXIS2_PLACEMENT_3D('',#921,#922,#923);
#925=CYLINDRICAL_SURFACE('',#924,1.6E1);
#926=ORIENTED_EDGE('',*,*,#915,.F.);
#927=ORIENTED_EDGE('',*,*,#817,.T.);
#929=ORIENTED_EDGE('',*,*,#928,.T.);
#930=ORIENTED_EDGE('',*,*,#678,.T.);
#931=EDGE_LOOP('',(#926,#927,#929,#930));
#932=FACE_OUTER_BOUND('',#931,.F.);
#933=ADVANCED_FACE('',(#932),#925,.F.);
#934=CARTESIAN_POINT('',(0.E0,0.E0,1.2E1));
#935=DIRECTION('',(0.E0,0.E0,1.E0));
#936=DIRECTION('',(1.E0,0.E0,0.E0));
#937=AXIS2_PLACEMENT_3D('',#934,#935,#936);
#938=CYLINDRICAL_SURFACE('',#937,2.5E1);
#939=ORIENTED_EDGE('',*,*,#928,.F.);
#940=ORIENTED_EDGE('',*,*,#815,.T.);
#942=ORIENTED_EDGE('',*,*,#941,.F.);
#943=ORIENTED_EDGE('',*,*,#680,.T.);
#944=EDGE_LOOP('',(#939,#940,#942,#943));
#945=FACE_OUTER_BOUND('',#944,.F.);
#946=ADVANCED_FACE('',(#945),#938,.T.);
#947=CARTESIAN_POINT('',(3.774917217635E1,-1.6E1,-2.04528E1));
#948=DIRECTION('',(0.E0,0.E0,1.E0));
#949=DIRECTION('',(0.E0,1.E0,0.E0));
#950=AXIS2_PLACEMENT_3D('',#947,#948,#949);
#951=CYLINDRICAL_SURFACE('',#950,1.6E1);
#953=ORIENTED_EDGE('',*,*,#952,.F.);
#954=ORIENTED_EDGE('',*,*,#682,.T.);
#955=ORIENTED_EDGE('',*,*,#941,.T.);
#956=ORIENTED_EDGE('',*,*,#813,.T.);
#957=EDGE_LOOP('',(#953,#954,#955,#956));
#958=FACE_OUTER_BOUND('',#957,.F.);
#959=ADVANCED_FACE('',(#958),#951,.F.);
#960=CARTESIAN_POINT('',(0.E0,0.E0,0.E0));
#961=DIRECTION('',(0.E0,-1.E0,0.E0));
#962=DIRECTION('',(1.E0,0.E0,0.E0));
#963=AXIS2_PLACEMENT_3D('',#960,#961,#962);
#964=PLANE('',#963);
#965=ORIENTED_EDGE('',*,*,#952,.T.);
#966=ORIENTED_EDGE('',*,*,#811,.T.);
#968=ORIENTED_EDGE('',*,*,#967,.T.);
#969=ORIENTED_EDGE('',*,*,#684,.F.);
#970=EDGE_LOOP('',(#965,#966,#968,#969));
#971=FACE_OUTER_BOUND('',#970,.F.);
#972=ADVANCED_FACE('',(#971),#964,.T.);
#973=CARTESIAN_POINT('',(3.512660282760E2,-3.5E1,5.52984E1));
#974=DIRECTION('',(0.E0,0.E0,-1.E0));
#975=DIRECTION('',(0.E0,1.E0,0.E0));
#976=AXIS2_PLACEMENT_3D('',#973,#974,#975);
#977=CYLINDRICAL_SURFACE('',#976,3.5E1);
#978=ORIENTED_EDGE('',*,*,#967,.F.);
#979=ORIENTED_EDGE('',*,*,#809,.T.);
#981=ORIENTED_EDGE('',*,*,#980,.T.);
#982=ORIENTED_EDGE('',*,*,#686,.T.);
#983=EDGE_LOOP('',(#978,#979,#981,#982));
#984=FACE_OUTER_BOUND('',#983,.F.);
#985=ADVANCED_FACE('',(#984),#977,.F.);
#986=CARTESIAN_POINT('',(4.E2,0.E0,1.2E1));
#987=DIRECTION('',(0.E0,0.E0,1.E0));
#988=DIRECTION('',(1.E0,0.E0,0.E0));
#989=AXIS2_PLACEMENT_3D('',#986,#987,#988);
#990=CYLINDRICAL_SURFACE('',#989,2.5E1);
#992=ORIENTED_EDGE('',*,*,#991,.F.);
#993=ORIENTED_EDGE('',*,*,#688,.T.);
#994=ORIENTED_EDGE('',*,*,#980,.F.);
#995=ORIENTED_EDGE('',*,*,#807,.T.);
#996=EDGE_LOOP('',(#992,#993,#994,#995));
#997=FACE_OUTER_BOUND('',#996,.F.);
#998=ADVANCED_FACE('',(#997),#990,.T.);
#999=CARTESIAN_POINT('',(4.397993377411E2,9.849503305812E0,-2.04528E1));
#1000=DIRECTION('',(0.E0,0.E0,1.E0));
#1001=DIRECTION('',(-6.E-1,8.E-1,0.E0));
#1002=AXIS2_PLACEMENT_3D('',#999,#1000,#1001);
#1003=CYLINDRICAL_SURFACE('',#1002,1.6E1);
#1005=ORIENTED_EDGE('',*,*,#1004,.F.);
#1006=ORIENTED_EDGE('',*,*,#690,.T.);
#1007=ORIENTED_EDGE('',*,*,#991,.T.);
#1008=ORIENTED_EDGE('',*,*,#805,.T.);
#1009=EDGE_LOOP('',(#1005,#1006,#1007,#1008));
#1010=FACE_OUTER_BOUND('',#1009,.F.);
#1011=ADVANCED_FACE('',(#1010),#1003,.F.);
#1012=CARTESIAN_POINT('',(4.E2,0.E0,0.E0));
#1013=DIRECTION('',(6.E-1,-8.E-1,0.E0));
#1014=DIRECTION('',(8.E-1,6.E-1,0.E0));
#1015=AXIS2_PLACEMENT_3D('',#1012,#1013,#1014);
#1016=PLANE('',#1015);
#1018=ORIENTED_EDGE('',*,*,#1017,.T.);
#1019=ORIENTED_EDGE('',*,*,#692,.F.);
#1020=ORIENTED_EDGE('',*,*,#1004,.T.);
#1021=ORIENTED_EDGE('',*,*,#803,.T.);
#1022=EDGE_LOOP('',(#1018,#1019,#1020,#1021));
#1023=FACE_OUTER_BOUND('',#1022,.F.);
#1024=ADVANCED_FACE('',(#1023),#1016,.T.);
#1025=CARTESIAN_POINT('',(7.794006622589E2,2.645504966942E2,3.24528E1));
#1026=DIRECTION('',(0.E0,0.E0,-1.E0));
#1027=DIRECTION('',(-6.E-1,8.E-1,0.E0));
#1028=AXIS2_PLACEMENT_3D('',#1025,#1026,#1027);
#1029=CYLINDRICAL_SURFACE('',#1028,1.6E1);
#1030=ORIENTED_EDGE('',*,*,#1017,.F.);
#1031=ORIENTED_EDGE('',*,*,#801,.T.);
#1033=ORIENTED_EDGE('',*,*,#1032,.T.);
#1034=ORIENTED_EDGE('',*,*,#694,.T.);
#1035=EDGE_LOOP('',(#1030,#1031,#1033,#1034));
#1036=FACE_OUTER_BOUND('',#1035,.F.);
#1037=ADVANCED_FACE('',(#1036),#1029,.F.);
#1038=CARTESIAN_POINT('',(8.E2,3.E2,1.2E1));
#1039=DIRECTION('',(0.E0,0.E0,1.E0));
#1040=DIRECTION('',(1.E0,0.E0,0.E0));
#1041=AXIS2_PLACEMENT_3D('',#1038,#1039,#1040);
#1042=CYLINDRICAL_SURFACE('',#1041,2.5E1);
#1043=ORIENTED_EDGE('',*,*,#1032,.F.);
#1044=ORIENTED_EDGE('',*,*,#799,.T.);
#1046=ORIENTED_EDGE('',*,*,#1045,.F.);
#1047=ORIENTED_EDGE('',*,*,#696,.T.);
#1048=EDGE_LOOP('',(#1043,#1044,#1046,#1047));
#1049=FACE_OUTER_BOUND('',#1048,.F.);
#1050=ADVANCED_FACE('',(#1049),#1042,.T.);
#1051=CARTESIAN_POINT('',(7.622508278236E2,3.16E2,-2.04528E1));
#1052=DIRECTION('',(0.E0,0.E0,1.E0));
#1053=DIRECTION('',(0.E0,-1.E0,0.E0));
#1054=AXIS2_PLACEMENT_3D('',#1051,#1052,#1053);
#1055=CYLINDRICAL_SURFACE('',#1054,1.6E1);
#1056=ORIENTED_EDGE('',*,*,#767,.F.);
#1057=ORIENTED_EDGE('',*,*,#698,.T.);
#1058=ORIENTED_EDGE('',*,*,#1045,.T.);
#1059=ORIENTED_EDGE('',*,*,#797,.T.);
#1060=EDGE_LOOP('',(#1056,#1057,#1058,#1059));
#1061=FACE_OUTER_BOUND('',#1060,.F.);
#1062=ADVANCED_FACE('',(#1061),#1055,.F.);
#1063=CARTESIAN_POINT('',(3.924035649477E2,4.252767371078E1,1.2E1));
#1064=DIRECTION('',(6.E-1,-8.E-1,0.E0));
#1065=DIRECTION('',(8.E-1,6.E-1,0.E0));
#1066=AXIS2_PLACEMENT_3D('',#1063,#1064,#1065);
#1067=PLANE('',#1066);
#1069=ORIENTED_EDGE('',*,*,#1068,.T.);
#1070=ORIENTED_EDGE('',*,*,#706,.T.);
#1072=ORIENTED_EDGE('',*,*,#1071,.F.);
#1073=ORIENTED_EDGE('',*,*,#825,.F.);
#1074=EDGE_LOOP('',(#1069,#1070,#1072,#1073));
#1075=FACE_OUTER_BOUND('',#1074,.F.);
#1076=ADVANCED_FACE('',(#1075),#1067,.F.);
#1077=CARTESIAN_POINT('',(3.869420241723E2,5.843151812924E1,3.24528E1));
#1078=DIRECTION('',(0.E0,0.E0,-1.E0));
#1079=DIRECTION('',(6.E-1,-8.E-1,0.E0));
#1080=AXIS2_PLACEMENT_3D('',#1077,#1078,#1079);
#1081=CYLINDRICAL_SURFACE('',#1080,1.6E1);
#1082=ORIENTED_EDGE('',*,*,#1068,.F.);
#1083=ORIENTED_EDGE('',*,*,#835,.T.);
#1085=ORIENTED_EDGE('',*,*,#1084,.T.);
#1086=ORIENTED_EDGE('',*,*,#708,.T.);
#1087=EDGE_LOOP('',(#1082,#1083,#1085,#1086));
#1088=FACE_OUTER_BOUND('',#1087,.F.);
#1089=ADVANCED_FACE('',(#1088),#1081,.F.);
#1090=CARTESIAN_POINT('',(1.741190074822E2,3.858E1,1.2E1));
#1091=DIRECTION('',(1.808203172225E-2,-9.998365066994E-1,0.E0));
#1092=DIRECTION('',(9.998365066994E-1,1.808203172225E-2,0.E0));
#1093=AXIS2_PLACEMENT_3D('',#1090,#1091,#1092);
#1094=PLANE('',#1093);
#1095=ORIENTED_EDGE('',*,*,#1084,.F.);
#1096=ORIENTED_EDGE('',*,*,#833,.F.);
#1098=ORIENTED_EDGE('',*,*,#1097,.T.);
#1099=ORIENTED_EDGE('',*,*,#710,.T.);
#1100=EDGE_LOOP('',(#1095,#1096,#1098,#1099));
#1101=FACE_OUTER_BOUND('',#1100,.F.);
#1102=ADVANCED_FACE('',(#1101),#1094,.F.);
#1103=CARTESIAN_POINT('',(2.626398065234E2,5.618351395294E1,3.24528E1));
#1104=DIRECTION('',(0.E0,0.E0,-1.E0));
#1105=DIRECTION('',(1.808203172225E-2,-9.998365066994E-1,0.E0));
#1106=AXIS2_PLACEMENT_3D('',#1103,#1104,#1105);
#1107=CYLINDRICAL_SURFACE('',#1106,1.6E1);
#1108=ORIENTED_EDGE('',*,*,#1097,.F.);
#1109=ORIENTED_EDGE('',*,*,#831,.T.);
#1111=ORIENTED_EDGE('',*,*,#1110,.T.);
#1112=ORIENTED_EDGE('',*,*,#712,.T.);
#1113=EDGE_LOOP('',(#1108,#1109,#1111,#1112));
#1114=FACE_OUTER_BOUND('',#1113,.F.);
#1115=ADVANCED_FACE('',(#1114),#1107,.F.);
#1116=CARTESIAN_POINT('',(6.217344083795E2,2.145258062846E2,1.2E1));
#1117=DIRECTION('',(-3.658269010029E-1,9.306829097510E-1,0.E0));
#1118=DIRECTION('',(-9.306829097510E-1,-3.658269010029E-1,0.E0));
#1119=AXIS2_PLACEMENT_3D('',#1116,#1117,#1118);
#1120=PLANE('',#1119);
#1122=ORIENTED_EDGE('',*,*,#1121,.T.);
#1123=ORIENTED_EDGE('',*,*,#702,.T.);
#1124=ORIENTED_EDGE('',*,*,#1110,.F.);
#1125=ORIENTED_EDGE('',*,*,#829,.F.);
#1126=EDGE_LOOP('',(#1122,#1123,#1124,#1125));
#1127=FACE_OUTER_BOUND('',#1126,.F.);
#1128=ADVANCED_FACE('',(#1127),#1120,.F.);
#1129=CARTESIAN_POINT('',(5.175345532309E2,1.563759149232E2,3.24528E1));
#1130=DIRECTION('',(0.E0,0.E0,-1.E0));
#1131=DIRECTION('',(-3.658269010029E-1,9.306829097510E-1,0.E0));
#1132=AXIS2_PLACEMENT_3D('',#1129,#1130,#1131);
#1133=CYLINDRICAL_SURFACE('',#1132,1.6E1);
#1134=ORIENTED_EDGE('',*,*,#1121,.F.);
#1135=ORIENTED_EDGE('',*,*,#827,.T.);
#1136=ORIENTED_EDGE('',*,*,#1071,.T.);
#1137=ORIENTED_EDGE('',*,*,#704,.T.);
#1138=EDGE_LOOP('',(#1134,#1135,#1136,#1137));
#1139=FACE_OUTER_BOUND('',#1138,.F.);
#1140=ADVANCED_FACE('',(#1139),#1133,.F.);
#1141=CARTESIAN_POINT('',(6.865929444784E1,3.858E1,1.2E1));
#1142=DIRECTION('',(3.658269010029E-1,-9.306829097510E-1,0.E0));
#1143=DIRECTION('',(9.306829097510E-1,3.658269010029E-1,0.E0));
#1144=AXIS2_PLACEMENT_3D('',#1141,#1142,#1143);
#1145=PLANE('',#1144);
#1147=ORIENTED_EDGE('',*,*,#1146,.F.);
#1148=ORIENTED_EDGE('',*,*,#839,.F.);
#1150=ORIENTED_EDGE('',*,*,#1149,.T.);
#1151=ORIENTED_EDGE('',*,*,#720,.T.);
#1152=EDGE_LOOP('',(#1147,#1148,#1150,#1151));
#1153=FACE_OUTER_BOUND('',#1152,.F.);
#1154=ADVANCED_FACE('',(#1153),#1145,.F.);
#1155=CARTESIAN_POINT('',(5.511346197151E2,2.4542E2,3.24528E1));
#1156=DIRECTION('',(0.E0,0.E0,-1.E0));
#1157=DIRECTION('',(0.E0,1.E0,0.E0));
#1158=AXIS2_PLACEMENT_3D('',#1155,#1156,#1157);
#1159=CYLINDRICAL_SURFACE('',#1158,1.6E1);
#1161=ORIENTED_EDGE('',*,*,#1160,.F.);
#1162=ORIENTED_EDGE('',*,*,#841,.T.);
#1163=ORIENTED_EDGE('',*,*,#1146,.T.);
#1164=ORIENTED_EDGE('',*,*,#718,.T.);
#1165=EDGE_LOOP('',(#1161,#1162,#1163,#1164));
#1166=FACE_OUTER_BOUND('',#1165,.F.);
#1167=ADVANCED_FACE('',(#1166),#1159,.F.);
#1168=CARTESIAN_POINT('',(0.E0,2.6142E2,1.2E1));
#1169=DIRECTION('',(0.E0,1.E0,0.E0));
#1170=DIRECTION('',(-1.E0,0.E0,0.E0));
#1171=AXIS2_PLACEMENT_3D('',#1168,#1169,#1170);
#1172=PLANE('',#1171);
#1173=ORIENTED_EDGE('',*,*,#1160,.T.);
#1174=ORIENTED_EDGE('',*,*,#716,.T.);
#1176=ORIENTED_EDGE('',*,*,#1175,.F.);
#1177=ORIENTED_EDGE('',*,*,#843,.T.);
#1178=EDGE_LOOP('',(#1173,#1174,#1176,#1177));
#1179=FACE_OUTER_BOUND('',#1178,.F.);
#1180=ADVANCED_FACE('',(#1179),#1172,.F.);
#1181=CARTESIAN_POINT('',(-2.3626E2,2.4542E2,3.24528E1));
#1182=DIRECTION('',(0.E0,0.E0,-1.E0));
#1183=DIRECTION('',(-6.E-1,-8.E-1,0.E0));
#1184=AXIS2_PLACEMENT_3D('',#1181,#1182,#1183);
#1185=CYLINDRICAL_SURFACE('',#1184,1.6E1);
#1187=ORIENTED_EDGE('',*,*,#1186,.F.);
#1188=ORIENTED_EDGE('',*,*,#845,.T.);
#1189=ORIENTED_EDGE('',*,*,#1175,.T.);
#1190=ORIENTED_EDGE('',*,*,#730,.T.);
#1191=EDGE_LOOP('',(#1187,#1188,#1189,#1190));
#1192=FACE_OUTER_BOUND('',#1191,.F.);
#1193=ADVANCED_FACE('',(#1192),#1185,.F.);
#1194=CARTESIAN_POINT('',(-2.8426E2,2.6142E2,1.2E1));
#1195=DIRECTION('',(-6.E-1,-8.E-1,0.E0));
#1196=DIRECTION('',(8.E-1,-6.E-1,0.E0));
#1197=AXIS2_PLACEMENT_3D('',#1194,#1195,#1196);
#1198=PLANE('',#1197);
#1200=ORIENTED_EDGE('',*,*,#1199,.F.);
#1201=ORIENTED_EDGE('',*,*,#847,.F.);
#1202=ORIENTED_EDGE('',*,*,#1186,.T.);
#1203=ORIENTED_EDGE('',*,*,#728,.T.);
#1204=EDGE_LOOP('',(#1200,#1201,#1202,#1203));
#1205=FACE_OUTER_BOUND('',#1204,.F.);
#1206=ADVANCED_FACE('',(#1205),#1198,.F.);
#1207=CARTESIAN_POINT('',(1.819333333333E1,5.458E1,3.24528E1));
#1208=DIRECTION('',(0.E0,0.E0,-1.E0));
#1209=DIRECTION('',(0.E0,-1.E0,0.E0));
#1210=AXIS2_PLACEMENT_3D('',#1207,#1208,#1209);
#1211=CYLINDRICAL_SURFACE('',#1210,1.6E1);
#1213=ORIENTED_EDGE('',*,*,#1212,.F.);
#1214=ORIENTED_EDGE('',*,*,#849,.T.);
#1215=ORIENTED_EDGE('',*,*,#1199,.T.);
#1216=ORIENTED_EDGE('',*,*,#726,.T.);
#1217=EDGE_LOOP('',(#1213,#1214,#1215,#1216));
#1218=FACE_OUTER_BOUND('',#1217,.F.);
#1219=ADVANCED_FACE('',(#1218),#1211,.F.);
#1220=CARTESIAN_POINT('',(1.286E1,3.858E1,1.2E1));
#1221=DIRECTION('',(0.E0,-1.E0,0.E0));
#1222=DIRECTION('',(1.E0,0.E0,0.E0));
#1223=AXIS2_PLACEMENT_3D('',#1220,#1221,#1222);
#1224=PLANE('',#1223);
#1225=ORIENTED_EDGE('',*,*,#1212,.T.);
#1226=ORIENTED_EDGE('',*,*,#724,.T.);
#1228=ORIENTED_EDGE('',*,*,#1227,.F.);
#1229=ORIENTED_EDGE('',*,*,#851,.F.);
#1230=EDGE_LOOP('',(#1225,#1226,#1228,#1229));
#1231=FACE_OUTER_BOUND('',#1230,.F.);
#1232=ADVANCED_FACE('',(#1231),#1224,.F.);
#1233=CARTESIAN_POINT('',(6.562760530485E1,5.458E1,3.24528E1));
#1234=DIRECTION('',(0.E0,0.E0,-1.E0));
#1235=DIRECTION('',(3.658269010029E-1,-9.306829097510E-1,0.E0));
#1236=AXIS2_PLACEMENT_3D('',#1233,#1234,#1235);
#1237=CYLINDRICAL_SURFACE('',#1236,1.6E1);
#1238=ORIENTED_EDGE('',*,*,#1149,.F.);
#1239=ORIENTED_EDGE('',*,*,#853,.T.);
#1240=ORIENTED_EDGE('',*,*,#1227,.T.);
#1241=ORIENTED_EDGE('',*,*,#722,.T.);
#1242=EDGE_LOOP('',(#1238,#1239,#1240,#1241));
#1243=FACE_OUTER_BOUND('',#1242,.F.);
#1244=ADVANCED_FACE('',(#1243),#1237,.F.);
#1245=CARTESIAN_POINT('',(-4.E2,3.E2,1.2E1));
#1246=DIRECTION('',(0.E0,0.E0,1.E0));
#1247=DIRECTION('',(1.E0,0.E0,0.E0));
#1248=AXIS2_PLACEMENT_3D('',#1245,#1246,#1247);
#1249=CYLINDRICAL_SURFACE('',#1248,2.5E0);
#1250=ORIENTED_EDGE('',*,*,#734,.T.);
#1252=ORIENTED_EDGE('',*,*,#1251,.F.);
#1253=ORIENTED_EDGE('',*,*,#857,.F.);
#1255=ORIENTED_EDGE('',*,*,#1254,.T.);
#1256=EDGE_LOOP('',(#1250,#1252,#1253,#1255));
#1257=FACE_OUTER_BOUND('',#1256,.F.);
#1258=ADVANCED_FACE('',(#1257),#1249,.F.);
#1259=CARTESIAN_POINT('',(-4.E2,3.E2,1.2E1));
#1260=DIRECTION('',(0.E0,0.E0,1.E0));
#1261=DIRECTION('',(1.E0,0.E0,0.E0));
#1262=AXIS2_PLACEMENT_3D('',#1259,#1260,#1261);
#1263=CYLINDRICAL_SURFACE('',#1262,2.5E0);
#1264=ORIENTED_EDGE('',*,*,#736,.T.);
#1265=ORIENTED_EDGE('',*,*,#1254,.F.);
#1266=ORIENTED_EDGE('',*,*,#859,.F.);
#1267=ORIENTED_EDGE('',*,*,#1251,.T.);
#1268=EDGE_LOOP('',(#1264,#1265,#1266,#1267));
#1269=FACE_OUTER_BOUND('',#1268,.F.);
#1270=ADVANCED_FACE('',(#1269),#1263,.F.);
#1271=CARTESIAN_POINT('',(4.E2,0.E0,1.2E1));
#1272=DIRECTION('',(0.E0,0.E0,1.E0));
#1273=DIRECTION('',(1.E0,0.E0,0.E0));
#1274=AXIS2_PLACEMENT_3D('',#1271,#1272,#1273);
#1275=CYLINDRICAL_SURFACE('',#1274,2.5E0);
#1276=ORIENTED_EDGE('',*,*,#740,.T.);
#1278=ORIENTED_EDGE('',*,*,#1277,.F.);
#1279=ORIENTED_EDGE('',*,*,#863,.F.);
#1281=ORIENTED_EDGE('',*,*,#1280,.T.);
#1282=EDGE_LOOP('',(#1276,#1278,#1279,#1281));
#1283=FACE_OUTER_BOUND('',#1282,.F.);
#1284=ADVANCED_FACE('',(#1283),#1275,.F.);
#1285=CARTESIAN_POINT('',(4.E2,0.E0,1.2E1));
#1286=DIRECTION('',(0.E0,0.E0,1.E0));
#1287=DIRECTION('',(1.E0,0.E0,0.E0));
#1288=AXIS2_PLACEMENT_3D('',#1285,#1286,#1287);
#1289=CYLINDRICAL_SURFACE('',#1288,2.5E0);
#1290=ORIENTED_EDGE('',*,*,#742,.T.);
#1291=ORIENTED_EDGE('',*,*,#1280,.F.);
#1292=ORIENTED_EDGE('',*,*,#865,.F.);
#1293=ORIENTED_EDGE('',*,*,#1277,.T.);
#1294=EDGE_LOOP('',(#1290,#1291,#1292,#1293));
#1295=FACE_OUTER_BOUND('',#1294,.F.);
#1296=ADVANCED_FACE('',(#1295),#1289,.F.);
#1297=CARTESIAN_POINT('',(0.E0,0.E0,1.2E1));
#1298=DIRECTION('',(0.E0,0.E0,1.E0));
#1299=DIRECTION('',(1.E0,0.E0,0.E0));
#1300=AXIS2_PLACEMENT_3D('',#1297,#1298,#1299);
#1301=CYLINDRICAL_SURFACE('',#1300,2.5E0);
#1302=ORIENTED_EDGE('',*,*,#746,.T.);
#1304=ORIENTED_EDGE('',*,*,#1303,.F.);
#1305=ORIENTED_EDGE('',*,*,#869,.F.);
#1307=ORIENTED_EDGE('',*,*,#1306,.T.);
#1308=EDGE_LOOP('',(#1302,#1304,#1305,#1307));
#1309=FACE_OUTER_BOUND('',#1308,.F.);
#1310=ADVANCED_FACE('',(#1309),#1301,.F.);
#1311=CARTESIAN_POINT('',(0.E0,0.E0,1.2E1));
#1312=DIRECTION('',(0.E0,0.E0,1.E0));
#1313=DIRECTION('',(1.E0,0.E0,0.E0));
#1314=AXIS2_PLACEMENT_3D('',#1311,#1312,#1313);
#1315=CYLINDRICAL_SURFACE('',#1314,2.5E0);
#1316=ORIENTED_EDGE('',*,*,#748,.T.);
#1317=ORIENTED_EDGE('',*,*,#1306,.F.);
#1318=ORIENTED_EDGE('',*,*,#871,.F.);
#1319=ORIENTED_EDGE('',*,*,#1303,.T.);
#1320=EDGE_LOOP('',(#1316,#1317,#1318,#1319));
#1321=FACE_OUTER_BOUND('',#1320,.F.);
#1322=ADVANCED_FACE('',(#1321),#1315,.F.);
#1323=CARTESIAN_POINT('',(8.E2,3.E2,1.2E1));
#1324=DIRECTION('',(0.E0,0.E0,1.E0));
#1325=DIRECTION('',(1.E0,0.E0,0.E0));
#1326=AXIS2_PLACEMENT_3D('',#1323,#1324,#1325);
#1327=CYLINDRICAL_SURFACE('',#1326,2.5E0);
#1328=ORIENTED_EDGE('',*,*,#752,.T.);
#1330=ORIENTED_EDGE('',*,*,#1329,.F.);
#1331=ORIENTED_EDGE('',*,*,#875,.F.);
#1333=ORIENTED_EDGE('',*,*,#1332,.T.);
#1334=EDGE_LOOP('',(#1328,#1330,#1331,#1333));
#1335=FACE_OUTER_BOUND('',#1334,.F.);
#1336=ADVANCED_FACE('',(#1335),#1327,.F.);
#1337=CARTESIAN_POINT('',(8.E2,3.E2,1.2E1));
#1338=DIRECTION('',(0.E0,0.E0,1.E0));
#1339=DIRECTION('',(1.E0,0.E0,0.E0));
#1340=AXIS2_PLACEMENT_3D('',#1337,#1338,#1339);
#1341=CYLINDRICAL_SURFACE('',#1340,2.5E0);
#1342=ORIENTED_EDGE('',*,*,#754,.T.);
#1343=ORIENTED_EDGE('',*,*,#1332,.F.);
#1344=ORIENTED_EDGE('',*,*,#877,.F.);
#1345=ORIENTED_EDGE('',*,*,#1329,.T.);
#1346=EDGE_LOOP('',(#1342,#1343,#1344,#1345));
#1347=FACE_OUTER_BOUND('',#1346,.F.);
#1348=ADVANCED_FACE('',(#1347),#1341,.F.);
#1352=DIMENSIONAL_EXPONENTS(0.E0,0.E0,0.E0,0.E0,0.E0,0.E0,0.E0);
#1354=PLANE_ANGLE_MEASURE_WITH_UNIT(PLANE_ANGLE_MEASURE(1.745329251994E-2),
#1353);
#1355=(CONVERSION_BASED_UNIT('DEGREE',#1354)NAMED_UNIT(*)PLANE_ANGLE_UNIT());
#1357=UNCERTAINTY_MEASURE_WITH_UNIT(LENGTH_MEASURE(1.E-2),#1351,'closure',
'Maximum model space distance between geometric entities at asserted connectivities');
#1358=(GEOMETRIC_REPRESENTATION_CONTEXT(3)GLOBAL_UNCERTAINTY_ASSIGNED_CONTEXT((
#1357))GLOBAL_UNIT_ASSIGNED_CONTEXT((#1351,#1355,#1356))REPRESENTATION_CONTEXT(
'ID1','3'));
#1360=APPLICATION_CONTEXT(
'CONFIGURATION CONTROLLED 3D DESIGNS OF MECHANICAL PARTS AND ASSEMBLIES');
#1361=APPLICATION_PROTOCOL_DEFINITION('international standard',
'config_control_design',1994,#1360);
#1362=DESIGN_CONTEXT('',#1360,'design');
#1363=MECHANICAL_CONTEXT('',#1360,'mechanical');
#1364=PRODUCT('TRUSS_FRAME','TRUSS_FRAME','NOT SPECIFIED',(#1363));
#1365=PRODUCT_DEFINITION_FORMATION_WITH_SPECIFIED_SOURCE('1','LAST_VERSION',
#1364,.MADE.);
#1369=PRODUCT_CATEGORY('part','');
#1370=PRODUCT_RELATED_PRODUCT_CATEGORY('detail','',(#1364));
#1371=PRODUCT_CATEGORY_RELATIONSHIP('','',#1369,#1370);
#1372=SECURITY_CLASSIFICATION_LEVEL('unclassified');
#1373=SECURITY_CLASSIFICATION('','',#1372);
#1374=CC_DESIGN_SECURITY_CLASSIFICATION(#1373,(#1365));
#1375=APPROVAL_STATUS('approved');
#1376=APPROVAL(#1375,'');
#1377=CC_DESIGN_APPROVAL(#1376,(#1373,#1365,#1366));
#1378=CALENDAR_DATE(126,2,9);
#1379=COORDINATED_UNIVERSAL_TIME_OFFSET(4,0,.BEHIND.);
#1380=LOCAL_TIME(18,33,3.6E1,#1379);
#1381=DATE_AND_TIME(#1378,#1380);
#1382=APPROVAL_DATE_TIME(#1381,#1376);
#1383=DATE_TIME_ROLE('creation_date');
#1384=CC_DESIGN_DATE_AND_TIME_ASSIGNMENT(#1381,#1383,(#1366));
#1385=DATE_TIME_ROLE('classification_date');
#1386=CC_DESIGN_DATE_AND_TIME_ASSIGNMENT(#1381,#1385,(#1373));
#1387=PERSON('UNSPECIFIED','UNSPECIFIED',$,$,$,$);
#1388=ORGANIZATION('UNSPECIFIED','UNSPECIFIED','UNSPECIFIED');
#1389=PERSON_AND_ORGANIZATION(#1387,#1388);
#1390=APPROVAL_ROLE('approver');
#1391=APPROVAL_PERSON_ORGANIZATION(#1389,#1376,#1390);
#1392=PERSON_AND_ORGANIZATION_ROLE('creator');
#1393=CC_DESIGN_PERSON_AND_ORGANIZATION_ASSIGNMENT(#1389,#1392,(#1365,#1366));
#1394=PERSON_AND_ORGANIZATION_ROLE('design_supplier');
#1395=CC_DESIGN_PERSON_AND_ORGANIZATION_ASSIGNMENT(#1389,#1394,(#1365));
#1396=PERSON_AND_ORGANIZATION_ROLE('classification_officer');
#1397=CC_DESIGN_PERSON_AND_ORGANIZATION_ASSIGNMENT(#1389,#1396,(#1373));
#1398=PERSON_AND_ORGANIZATION_ROLE('design_owner');
#1399=CC_DESIGN_PERSON_AND_ORGANIZATION_ASSIGNMENT(#1389,#1398,(#1364));
#45=CIRCLE('',#44,2.5E0);
#50=CIRCLE('',#49,2.5E0);
#55=CIRCLE('',#54,2.5E0);
#60=CIRCLE('',#59,2.5E0);
#65=CIRCLE('',#64,2.5E0);
#70=CIRCLE('',#69,2.5E0);
#75=CIRCLE('',#74,2.5E0);
#80=CIRCLE('',#79,2.5E0);
#93=CIRCLE('',#92,1.6E1);
#98=CIRCLE('',#97,1.6E1);
#143=CIRCLE('',#142,2.5E0);
#148=CIRCLE('',#147,2.5E0);
#153=CIRCLE('',#152,2.5E0);
#158=CIRCLE('',#157,2.5E0);
#163=CIRCLE('',#162,2.5E0);
#168=CIRCLE('',#167,2.5E0);
#173=CIRCLE('',#172,2.5E0);
#178=CIRCLE('',#177,2.5E0);
#187=CIRCLE('',#186,2.5E1);
#196=CIRCLE('',#195,2.5E1);
#201=CIRCLE('',#200,1.6E1);
#206=CIRCLE('',#205,1.6E1);
#219=CIRCLE('',#218,1.6E1);
#224=CIRCLE('',#223,1.6E1);
#233=CIRCLE('',#232,2.5E1);
#242=CIRCLE('',#241,2.5E1);
#247=CIRCLE('',#246,1.6E1);
#252=CIRCLE('',#251,1.6E1);
#265=CIRCLE('',#264,3.5E1);
#270=CIRCLE('',#269,3.5E1);
#279=CIRCLE('',#278,2.5E1);
#288=CIRCLE('',#287,2.5E1);
#293=CIRCLE('',#292,1.6E1);
#298=CIRCLE('',#297,1.6E1);
#311=CIRCLE('',#310,1.6E1);
#316=CIRCLE('',#315,1.6E1);
#325=CIRCLE('',#324,2.5E1);
#334=CIRCLE('',#333,2.5E1);
#339=CIRCLE('',#338,1.6E1);
#344=CIRCLE('',#343,1.6E1);
#357=CIRCLE('',#356,1.6E1);
#362=CIRCLE('',#361,1.6E1);
#375=CIRCLE('',#374,1.6E1);
#380=CIRCLE('',#379,1.6E1);
#393=CIRCLE('',#392,1.6E1);
#398=CIRCLE('',#397,1.6E1);
#411=CIRCLE('',#410,1.6E1);
#416=CIRCLE('',#415,1.6E1);
#437=CIRCLE('',#436,1.6E1);
#442=CIRCLE('',#441,1.6E1);
#455=CIRCLE('',#454,1.6E1);
#460=CIRCLE('',#459,1.6E1);
#473=CIRCLE('',#472,1.6E1);
#478=CIRCLE('',#477,1.6E1);
#668=EDGE_CURVE('',#537,#522,#4,.T.);
#670=EDGE_CURVE('',#526,#522,#98,.T.);
#672=EDGE_CURVE('',#517,#526,#187,.T.);
#674=EDGE_CURVE('',#513,#517,#201,.T.);
#676=EDGE_CURVE('',#513,#546,#8,.T.);
#678=EDGE_CURVE('',#554,#546,#224,.T.);
#680=EDGE_CURVE('',#561,#554,#242,.T.);
#682=EDGE_CURVE('',#557,#561,#247,.T.);
#684=EDGE_CURVE('',#557,#570,#12,.T.);
#686=EDGE_CURVE('',#574,#570,#270,.T.);
#688=EDGE_CURVE('',#565,#574,#279,.T.);
#690=EDGE_CURVE('',#544,#565,#293,.T.);
#692=EDGE_CURVE('',#544,#530,#16,.T.);
#694=EDGE_CURVE('',#534,#530,#316,.T.);
#696=EDGE_CURVE('',#541,#534,#334,.T.);
#698=EDGE_CURVE('',#537,#541,#339,.T.);
#702=EDGE_CURVE('',#594,#606,#20,.T.);
#704=EDGE_CURVE('',#598,#594,#398,.T.);
#706=EDGE_CURVE('',#578,#598,#24,.T.);
#708=EDGE_CURVE('',#582,#578,#362,.T.);
#710=EDGE_CURVE('',#602,#582,#28,.T.);
#712=EDGE_CURVE('',#606,#602,#380,.T.);
#716=EDGE_CURVE('',#586,#630,#424,.T.);
#718=EDGE_CURVE('',#590,#586,#416,.T.);
#720=EDGE_CURVE('',#618,#590,#32,.T.);
#722=EDGE_CURVE('',#622,#618,#478,.T.);
#724=EDGE_CURVE('',#610,#622,#36,.T.);
#726=EDGE_CURVE('',#614,#610,#460,.T.);
#728=EDGE_CURVE('',#626,#614,#40,.T.);
#730=EDGE_CURVE('',#630,#626,#442,.T.);
#734=EDGE_CURVE('',#633,#634,#45,.T.);
#736=EDGE_CURVE('',#634,#633,#50,.T.);
#740=EDGE_CURVE('',#637,#638,#55,.T.);
#742=EDGE_CURVE('',#638,#637,#60,.T.);
#746=EDGE_CURVE('',#641,#642,#65,.T.);
#748=EDGE_CURVE('',#642,#641,#70,.T.);
#752=EDGE_CURVE('',#645,#646,#75,.T.);
#754=EDGE_CURVE('',#646,#645,#80,.T.);
#764=EDGE_CURVE('',#521,#522,#84,.T.);
#767=EDGE_CURVE('',#537,#538,#88,.T.);
#769=EDGE_CURVE('',#538,#521,#102,.T.);
#780=EDGE_CURVE('',#521,#525,#93,.T.);
#782=EDGE_CURVE('',#525,#526,#191,.T.);
#793=EDGE_CURVE('',#525,#518,#196,.T.);
#797=EDGE_CURVE('',#542,#538,#344,.T.);
#799=EDGE_CURVE('',#533,#542,#325,.T.);
#801=EDGE_CURVE('',#529,#533,#311,.T.);
#803=EDGE_CURVE('',#548,#529,#106,.T.);
#805=EDGE_CURVE('',#566,#548,#298,.T.);
#807=EDGE_CURVE('',#573,#566,#288,.T.);
#809=EDGE_CURVE('',#569,#573,#265,.T.);
#811=EDGE_CURVE('',#558,#569,#110,.T.);
#813=EDGE_CURVE('',#562,#558,#252,.T.);
#815=EDGE_CURVE('',#553,#562,#233,.T.);
#817=EDGE_CURVE('',#550,#553,#219,.T.);
#819=EDGE_CURVE('',#514,#550,#114,.T.);
#821=EDGE_CURVE('',#518,#514,#206,.T.);
#825=EDGE_CURVE('',#577,#597,#118,.T.);
#827=EDGE_CURVE('',#593,#597,#393,.T.);
#829=EDGE_CURVE('',#593,#605,#122,.T.);
#831=EDGE_CURVE('',#601,#605,#375,.T.);
#833=EDGE_CURVE('',#601,#581,#126,.T.);
#835=EDGE_CURVE('',#577,#581,#357,.T.);
#839=EDGE_CURVE('',#617,#589,#130,.T.);
#841=EDGE_CURVE('',#585,#589,#411,.T.);
#843=EDGE_CURVE('',#629,#585,#432,.T.);
#845=EDGE_CURVE('',#625,#629,#437,.T.);
#847=EDGE_CURVE('',#625,#613,#134,.T.);
#849=EDGE_CURVE('',#609,#613,#455,.T.);
#851=EDGE_CURVE('',#609,#621,#138,.T.);
#853=EDGE_CURVE('',#617,#621,#473,.T.);
#857=EDGE_CURVE('',#649,#650,#143,.T.);
#859=EDGE_CURVE('',#650,#649,#148,.T.);
#863=EDGE_CURVE('',#653,#654,#153,.T.);
#865=EDGE_CURVE('',#654,#653,#158,.T.);
#869=EDGE_CURVE('',#657,#658,#163,.T.);
#871=EDGE_CURVE('',#658,#657,#168,.T.);
#875=EDGE_CURVE('',#661,#662,#173,.T.);
#877=EDGE_CURVE('',#662,#661,#178,.T.);
#887=EDGE_CURVE('',#517,#518,#182,.T.);
#900=EDGE_CURVE('',#513,#514,#210,.T.);
#915=EDGE_CURVE('',#550,#546,#214,.T.);
#928=EDGE_CURVE('',#553,#554,#228,.T.);
#941=EDGE_CURVE('',#561,#562,#237,.T.);
#952=EDGE_CURVE('',#557,#558,#256,.T.);
#967=EDGE_CURVE('',#569,#570,#260,.T.);
#980=EDGE_CURVE('',#573,#574,#283,.T.);
#991=EDGE_CURVE('',#565,#566,#274,.T.);
#1004=EDGE_CURVE('',#544,#548,#306,.T.);
#1017=EDGE_CURVE('',#529,#530,#302,.T.);
#1032=EDGE_CURVE('',#533,#534,#320,.T.);
#1045=EDGE_CURVE('',#541,#542,#329,.T.);
#1068=EDGE_CURVE('',#577,#578,#348,.T.);
#1071=EDGE_CURVE('',#597,#598,#352,.T.);
#1084=EDGE_CURVE('',#581,#582,#366,.T.);
#1097=EDGE_CURVE('',#601,#602,#370,.T.);
#1110=EDGE_CURVE('',#605,#606,#388,.T.);
#1121=EDGE_CURVE('',#593,#594,#384,.T.);
#1146=EDGE_CURVE('',#589,#590,#402,.T.);
#1149=EDGE_CURVE('',#617,#618,#406,.T.);
#1160=EDGE_CURVE('',#585,#586,#420,.T.);
#1175=EDGE_CURVE('',#629,#630,#428,.T.);
#1186=EDGE_CURVE('',#625,#626,#450,.T.);
#1199=EDGE_CURVE('',#613,#614,#446,.T.);
#1212=EDGE_CURVE('',#609,#610,#464,.T.);
#1227=EDGE_CURVE('',#621,#622,#468,.T.);
#1251=EDGE_CURVE('',#650,#634,#486,.T.);
#1254=EDGE_CURVE('',#649,#633,#482,.T.);
#1277=EDGE_CURVE('',#654,#638,#494,.T.);
#1280=EDGE_CURVE('',#653,#637,#490,.T.);
#1303=EDGE_CURVE('',#658,#642,#502,.T.);
#1306=EDGE_CURVE('',#657,#641,#498,.T.);
#1329=EDGE_CURVE('',#662,#646,#510,.T.);
#1332=EDGE_CURVE('',#661,#645,#506,.T.);
#1349=CLOSED_SHELL('',(#758,#773,#787,#881,#894,#907,#920,#933,#946,#959,#972,
#985,#998,#1011,#1024,#1037,#1050,#1062,#1076,#1089,#1102,#1115,#1128,#1140,
#1154,#1167,#1180,#1193,#1206,#1219,#1232,#1244,#1258,#1270,#1284,#1296,#1310,
#1322,#1336,#1348));
#1350=MANIFOLD_SOLID_BREP('',#1349);
#1351=(LENGTH_UNIT()NAMED_UNIT(*)SI_UNIT(.MILLI.,.METRE.));
#1353=(NAMED_UNIT(*)PLANE_ANGLE_UNIT()SI_UNIT($,.RADIAN.));
#1356=(NAMED_UNIT(*)SI_UNIT($,.STERADIAN.)SOLID_ANGLE_UNIT());
#1359=ADVANCED_BREP_SHAPE_REPRESENTATION('',(#1350),#1358);
#1366=PRODUCT_DEFINITION('design','',#1365,#1362);
#1367=PRODUCT_DEFINITION_SHAPE('','SHAPE FOR TRUSS_FRAME.',#1366);
#1368=SHAPE_DEFINITION_REPRESENTATION(#1367,#1359);
ENDSEC;
END-ISO-10303-21;
