ISO-10303-21;
HEADER;
/* Generated by software containing ST-Developer
 * from STEP Tools, Inc. (www.steptools.com) 
 */

FILE_DESCRIPTION(
/* description */ (''),
/* implementation_level */ '2;1');

FILE_NAME(
/* name */ 'Motor_Mount.step',
/* time_stamp */ '2026-09-16T18:03:50-04:00',
/* author */ (''),
/* organization */ (''),
/* preprocessor_version */ 'ST-DEVELOPER v20.2',
/* originating_system */ 'Autodesk Translation Framework v15.15.0.0',
/* authorisation */ '');

FILE_SCHEMA (('AUTOMOTIVE_DESIGN { 1 0 10303 214 3 1 1 }'));
ENDSEC;

DATA;
#10=MECHANICAL_DESIGN_GEOMETRIC_PRESENTATION_REPRESENTATION('',(#13),#890);
#11=SHAPE_REPRESENTATION_RELATIONSHIP('SRR','None',#897,#12);
#12=ADVANCED_BREP_SHAPE_REPRESENTATION('',(#14),#889);
#13=STYLED_ITEM('',(#906),#14);
#14=MANIFOLD_SOLID_BREP('Body1',#439);
#15=CYLINDRICAL_SURFACE('',#459,3.);
#16=CYLINDRICAL_SURFACE('',#461,3.);
#17=CYLINDRICAL_SURFACE('',#463,3.);
#18=CYLINDRICAL_SURFACE('',#465,3.);
#19=CYLINDRICAL_SURFACE('',#467,3.);
#20=CYLINDRICAL_SURFACE('',#470,3.);
#21=CYLINDRICAL_SURFACE('',#473,3.);
#22=CYLINDRICAL_SURFACE('',#476,3.);
#23=CYLINDRICAL_SURFACE('',#479,3.);
#24=FACE_BOUND('',#155,.T.);
#25=FACE_BOUND('',#156,.T.);
#26=FACE_BOUND('',#157,.T.);
#27=FACE_BOUND('',#171,.T.);
#28=FACE_BOUND('',#172,.T.);
#29=FACE_BOUND('',#173,.T.);
#30=FACE_BOUND('',#174,.T.);
#31=FACE_BOUND('',#179,.T.);
#32=FACE_BOUND('',#180,.T.);
#33=FACE_BOUND('',#181,.T.);
#34=FACE_BOUND('',#182,.T.);
#35=FACE_BOUND('',#184,.T.);
#36=FACE_BOUND('',#185,.T.);
#37=FACE_BOUND('',#186,.T.);
#38=FACE_BOUND('',#187,.T.);
#39=FACE_BOUND('',#188,.T.);
#40=CIRCLE('',#454,3.);
#41=CIRCLE('',#455,3.);
#42=CIRCLE('',#456,3.);
#43=CIRCLE('',#457,3.);
#44=CIRCLE('',#458,3.);
#45=CIRCLE('',#460,3.);
#46=CIRCLE('',#462,3.);
#47=CIRCLE('',#464,3.);
#48=CIRCLE('',#466,3.);
#49=CIRCLE('',#468,3.);
#50=CIRCLE('',#469,3.);
#51=CIRCLE('',#471,3.);
#52=CIRCLE('',#472,3.);
#53=CIRCLE('',#474,3.);
#54=CIRCLE('',#475,3.);
#55=CIRCLE('',#477,3.);
#56=CIRCLE('',#478,3.);
#57=CIRCLE('',#480,3.);
#58=CIRCLE('',#481,3.);
#59=LINE('',#788,#91);
#60=LINE('',#793,#92);
#61=LINE('',#795,#93);
#62=LINE('',#797,#94);
#63=LINE('',#799,#95);
#64=LINE('',#801,#96);
#65=LINE('',#802,#97);
#66=LINE('',#811,#98);
#67=LINE('',#815,#99);
#68=LINE('',#819,#100);
#69=LINE('',#823,#101);
#70=LINE('',#829,#102);
#71=LINE('',#834,#103);
#72=LINE('',#840,#104);
#73=LINE('',#846,#105);
#74=LINE('',#852,#106);
#75=LINE('',#856,#107);
#76=LINE('',#858,#108);
#77=LINE('',#859,#109);
#78=LINE('',#862,#110);
#79=LINE('',#863,#111);
#80=LINE('',#866,#112);
#81=LINE('',#867,#113);
#82=LINE('',#869,#114);
#83=LINE('',#872,#115);
#84=LINE('',#874,#116);
#85=LINE('',#875,#117);
#86=LINE('',#878,#118);
#87=LINE('',#880,#119);
#88=LINE('',#881,#120);
#89=LINE('',#883,#121);
#90=LINE('',#884,#122);
#91=VECTOR('',#495,10.);
#92=VECTOR('',#500,10.);
#93=VECTOR('',#501,10.);
#94=VECTOR('',#502,10.);
#95=VECTOR('',#503,10.);
#96=VECTOR('',#504,10.);
#97=VECTOR('',#505,10.);
#98=VECTOR('',#514,3.);
#99=VECTOR('',#519,3.);
#100=VECTOR('',#524,3.);
#101=VECTOR('',#529,3.);
#102=VECTOR('',#536,3.);
#103=VECTOR('',#543,3.);
#104=VECTOR('',#550,3.);
#105=VECTOR('',#557,3.);
#106=VECTOR('',#564,3.);
#107=VECTOR('',#569,10.);
#108=VECTOR('',#570,10.);
#109=VECTOR('',#571,10.);
#110=VECTOR('',#574,10.);
#111=VECTOR('',#575,10.);
#112=VECTOR('',#578,10.);
#113=VECTOR('',#579,10.);
#114=VECTOR('',#582,10.);
#115=VECTOR('',#585,10.);
#116=VECTOR('',#586,10.);
#117=VECTOR('',#587,10.);
#118=VECTOR('',#590,10.);
#119=VECTOR('',#591,10.);
#120=VECTOR('',#592,10.);
#121=VECTOR('',#595,10.);
#122=VECTOR('',#596,10.);
#123=PLANE('',#453);
#124=PLANE('',#482);
#125=PLANE('',#483);
#126=PLANE('',#484);
#127=PLANE('',#485);
#128=PLANE('',#486);
#129=PLANE('',#487);
#130=PLANE('',#488);
#131=PLANE('',#489);
#132=PLANE('',#490);
#133=FACE_OUTER_BOUND('',#153,.T.);
#134=FACE_OUTER_BOUND('',#154,.T.);
#135=FACE_OUTER_BOUND('',#158,.T.);
#136=FACE_OUTER_BOUND('',#159,.T.);
#137=FACE_OUTER_BOUND('',#160,.T.);
#138=FACE_OUTER_BOUND('',#161,.T.);
#139=FACE_OUTER_BOUND('',#162,.T.);
#140=FACE_OUTER_BOUND('',#163,.T.);
#141=FACE_OUTER_BOUND('',#164,.T.);
#142=FACE_OUTER_BOUND('',#165,.T.);
#143=FACE_OUTER_BOUND('',#166,.T.);
#144=FACE_OUTER_BOUND('',#167,.T.);
#145=FACE_OUTER_BOUND('',#168,.T.);
#146=FACE_OUTER_BOUND('',#169,.T.);
#147=FACE_OUTER_BOUND('',#170,.T.);
#148=FACE_OUTER_BOUND('',#175,.T.);
#149=FACE_OUTER_BOUND('',#176,.T.);
#150=FACE_OUTER_BOUND('',#177,.T.);
#151=FACE_OUTER_BOUND('',#178,.T.);
#152=FACE_OUTER_BOUND('',#183,.T.);
#153=EDGE_LOOP('',(#298,#299,#300,#301,#302,#303,#304,#305,#306));
#154=EDGE_LOOP('',(#307,#308,#309,#310,#311,#312,#313,#314,#315,#316,#317));
#155=EDGE_LOOP('',(#318));
#156=EDGE_LOOP('',(#319));
#157=EDGE_LOOP('',(#320));
#158=EDGE_LOOP('',(#321,#322,#323,#324,#325,#326));
#159=EDGE_LOOP('',(#327,#328,#329,#330));
#160=EDGE_LOOP('',(#331,#332,#333,#334));
#161=EDGE_LOOP('',(#335,#336,#337,#338));
#162=EDGE_LOOP('',(#339,#340,#341,#342));
#163=EDGE_LOOP('',(#343,#344,#345,#346,#347,#348));
#164=EDGE_LOOP('',(#349,#350,#351,#352));
#165=EDGE_LOOP('',(#353,#354,#355,#356));
#166=EDGE_LOOP('',(#357,#358,#359,#360));
#167=EDGE_LOOP('',(#361,#362,#363,#364));
#168=EDGE_LOOP('',(#365,#366,#367,#368));
#169=EDGE_LOOP('',(#369,#370,#371,#372));
#170=EDGE_LOOP('',(#373,#374,#375,#376));
#171=EDGE_LOOP('',(#377));
#172=EDGE_LOOP('',(#378));
#173=EDGE_LOOP('',(#379));
#174=EDGE_LOOP('',(#380));
#175=EDGE_LOOP('',(#381,#382,#383,#384,#385));
#176=EDGE_LOOP('',(#386,#387,#388,#389));
#177=EDGE_LOOP('',(#390,#391,#392,#393,#394));
#178=EDGE_LOOP('',(#395,#396,#397,#398,#399,#400));
#179=EDGE_LOOP('',(#401));
#180=EDGE_LOOP('',(#402));
#181=EDGE_LOOP('',(#403));
#182=EDGE_LOOP('',(#404));
#183=EDGE_LOOP('',(#405,#406,#407,#408,#409,#410,#411,#412));
#184=EDGE_LOOP('',(#413));
#185=EDGE_LOOP('',(#414));
#186=EDGE_LOOP('',(#415));
#187=EDGE_LOOP('',(#416));
#188=EDGE_LOOP('',(#417));
#189=B_SPLINE_CURVE_WITH_KNOTS('',3,(#632,#633,#634,#635,#636,#637,#638,
#639,#640,#641,#642,#643,#644,#645,#646,#647),.UNSPECIFIED.,.F.,.F.,(4,
2,2,2,2,2,2,4),(0.374044520995469,0.38191511517073,0.394077660222286,0.420995700677785,
0.482229895993888,0.577195117416627,0.661881450351124,0.748116617291999),
 .UNSPECIFIED.);
#190=B_SPLINE_CURVE_WITH_KNOTS('',3,(#649,#650,#651,#652),.UNSPECIFIED.,
 .F.,.F.,(4,4),(-1.21715726728098,6.66133814775094E-16),.UNSPECIFIED.);
#191=B_SPLINE_CURVE_WITH_KNOTS('',3,(#654,#655,#656,#657,#658,#659,#660,
#661,#662,#663,#664,#665,#666),.UNSPECIFIED.,.F.,.F.,(4,3,3,3,4),(0.,0.195860663668252,
0.391721327336504,0.538616825087693,0.685512322838882),.UNSPECIFIED.);
#192=B_SPLINE_CURVE_WITH_KNOTS('',3,(#668,#669,#670,#671),.UNSPECIFIED.,
 .F.,.F.,(4,4),(-6.66133814775094E-16,1.27180723703992),.UNSPECIFIED.);
#193=B_SPLINE_CURVE_WITH_KNOTS('',3,(#673,#674,#675,#676,#677,#678,#679,
#680,#681,#682,#683,#684,#685,#686,#687,#688,#689,#690,#691,#692,#693,#694,
#695,#696,#697,#698,#699,#700,#701,#702,#703,#704,#705,#706,#707,#708,#709,
#710,#711,#712,#713,#714,#715,#716,#717,#718,#719,#720,#721,#722,#723,#724,
#725,#726,#727,#728,#729,#730,#731,#732,#733,#734,#735,#736,#737,#738,#739,
#740,#741,#742,#743,#744,#745),.UNSPECIFIED.,.F.,.F.,(4,3,3,3,3,3,3,3,3,
3,3,3,3,3,3,3,3,3,3,3,3,3,3,3,4),(0.,0.0224243435978148,0.0464276335408363,
0.0731285141398317,0.0973642025412139,0.135241516231088,0.164676011913295,
0.189935621063511,0.210466847595146,0.232823655408346,0.23559493915265,
0.251979542120372,0.265231476380518,0.280407367202254,0.302653314419958,
0.30663444677676,0.330439756087825,0.355731222730665,0.361709870981071,
0.399541792975107,0.4292754194691,0.449581757483975,0.474693497985936,0.497883438599938,
0.519750034688282),.UNSPECIFIED.);
#194=B_SPLINE_CURVE_WITH_KNOTS('',3,(#747,#748,#749,#750),.UNSPECIFIED.,
 .F.,.F.,(4,4),(1.72819276296008,3.),.UNSPECIFIED.);
#195=B_SPLINE_CURVE_WITH_KNOTS('',3,(#752,#753,#754,#755,#756,#757,#758,
#759,#760,#761,#762,#763,#764),.UNSPECIFIED.,.F.,.F.,(4,3,3,3,4),(0.,0.146895497751381,
0.293790995502762,0.48965165917127,0.685512322839777),.UNSPECIFIED.);
#196=B_SPLINE_CURVE_WITH_KNOTS('',3,(#766,#767,#768,#769),.UNSPECIFIED.,
 .F.,.F.,(4,4),(-3.,-1.78284268801553),.UNSPECIFIED.);
#197=B_SPLINE_CURVE_WITH_KNOTS('',3,(#770,#771,#772,#773,#774,#775,#776,
#777,#778,#779,#780,#781,#782,#783,#784,#785),.UNSPECIFIED.,.F.,.F.,(4,
2,2,2,2,2,2,4),(0.,0.0870954263337074,0.203614896889518,0.312622427628164,
0.349988504703269,0.363895720553054,0.373080165772867,0.374044520995469),
 .UNSPECIFIED.);
#198=VERTEX_POINT('',#630);
#199=VERTEX_POINT('',#631);
#200=VERTEX_POINT('',#648);
#201=VERTEX_POINT('',#653);
#202=VERTEX_POINT('',#667);
#203=VERTEX_POINT('',#672);
#204=VERTEX_POINT('',#746);
#205=VERTEX_POINT('',#751);
#206=VERTEX_POINT('',#765);
#207=VERTEX_POINT('',#787);
#208=VERTEX_POINT('',#789);
#209=VERTEX_POINT('',#792);
#210=VERTEX_POINT('',#794);
#211=VERTEX_POINT('',#796);
#212=VERTEX_POINT('',#798);
#213=VERTEX_POINT('',#800);
#214=VERTEX_POINT('',#803);
#215=VERTEX_POINT('',#805);
#216=VERTEX_POINT('',#807);
#217=VERTEX_POINT('',#810);
#218=VERTEX_POINT('',#814);
#219=VERTEX_POINT('',#818);
#220=VERTEX_POINT('',#822);
#221=VERTEX_POINT('',#826);
#222=VERTEX_POINT('',#828);
#223=VERTEX_POINT('',#833);
#224=VERTEX_POINT('',#837);
#225=VERTEX_POINT('',#839);
#226=VERTEX_POINT('',#843);
#227=VERTEX_POINT('',#845);
#228=VERTEX_POINT('',#849);
#229=VERTEX_POINT('',#851);
#230=VERTEX_POINT('',#855);
#231=VERTEX_POINT('',#857);
#232=VERTEX_POINT('',#861);
#233=VERTEX_POINT('',#865);
#234=VERTEX_POINT('',#871);
#235=VERTEX_POINT('',#873);
#236=VERTEX_POINT('',#877);
#237=VERTEX_POINT('',#879);
#238=EDGE_CURVE('',#198,#199,#189,.F.);
#239=EDGE_CURVE('',#198,#200,#190,.T.);
#240=EDGE_CURVE('',#200,#201,#191,.T.);
#241=EDGE_CURVE('',#201,#202,#192,.T.);
#242=EDGE_CURVE('',#203,#202,#193,.F.);
#243=EDGE_CURVE('',#203,#204,#194,.T.);
#244=EDGE_CURVE('',#204,#205,#195,.T.);
#245=EDGE_CURVE('',#205,#206,#196,.T.);
#246=EDGE_CURVE('',#199,#206,#197,.F.);
#247=EDGE_CURVE('',#207,#204,#59,.T.);
#248=EDGE_CURVE('',#203,#208,#40,.T.);
#249=EDGE_CURVE('',#208,#202,#41,.T.);
#250=EDGE_CURVE('',#209,#201,#60,.T.);
#251=EDGE_CURVE('',#209,#210,#61,.T.);
#252=EDGE_CURVE('',#210,#211,#62,.T.);
#253=EDGE_CURVE('',#211,#212,#63,.T.);
#254=EDGE_CURVE('',#212,#213,#64,.T.);
#255=EDGE_CURVE('',#213,#207,#65,.T.);
#256=EDGE_CURVE('',#214,#214,#42,.T.);
#257=EDGE_CURVE('',#215,#215,#43,.T.);
#258=EDGE_CURVE('',#216,#216,#44,.T.);
#259=EDGE_CURVE('',#208,#217,#66,.T.);
#260=EDGE_CURVE('',#217,#217,#45,.T.);
#261=EDGE_CURVE('',#216,#218,#67,.T.);
#262=EDGE_CURVE('',#218,#218,#46,.T.);
#263=EDGE_CURVE('',#215,#219,#68,.T.);
#264=EDGE_CURVE('',#219,#219,#47,.T.);
#265=EDGE_CURVE('',#214,#220,#69,.T.);
#266=EDGE_CURVE('',#220,#220,#48,.T.);
#267=EDGE_CURVE('',#221,#221,#49,.T.);
#268=EDGE_CURVE('',#221,#222,#70,.T.);
#269=EDGE_CURVE('',#222,#222,#50,.T.);
#270=EDGE_CURVE('',#198,#206,#51,.T.);
#271=EDGE_CURVE('',#199,#223,#71,.T.);
#272=EDGE_CURVE('',#223,#223,#52,.T.);
#273=EDGE_CURVE('',#224,#224,#53,.T.);
#274=EDGE_CURVE('',#224,#225,#72,.T.);
#275=EDGE_CURVE('',#225,#225,#54,.T.);
#276=EDGE_CURVE('',#226,#226,#55,.T.);
#277=EDGE_CURVE('',#226,#227,#73,.T.);
#278=EDGE_CURVE('',#227,#227,#56,.T.);
#279=EDGE_CURVE('',#228,#228,#57,.T.);
#280=EDGE_CURVE('',#228,#229,#74,.T.);
#281=EDGE_CURVE('',#229,#229,#58,.T.);
#282=EDGE_CURVE('',#210,#230,#75,.T.);
#283=EDGE_CURVE('',#231,#230,#76,.T.);
#284=EDGE_CURVE('',#211,#231,#77,.T.);
#285=EDGE_CURVE('',#232,#231,#78,.T.);
#286=EDGE_CURVE('',#212,#232,#79,.T.);
#287=EDGE_CURVE('',#233,#232,#80,.T.);
#288=EDGE_CURVE('',#213,#233,#81,.T.);
#289=EDGE_CURVE('',#230,#233,#82,.T.);
#290=EDGE_CURVE('',#234,#209,#83,.T.);
#291=EDGE_CURVE('',#235,#200,#84,.T.);
#292=EDGE_CURVE('',#234,#235,#85,.T.);
#293=EDGE_CURVE('',#236,#234,#86,.T.);
#294=EDGE_CURVE('',#237,#235,#87,.T.);
#295=EDGE_CURVE('',#236,#237,#88,.T.);
#296=EDGE_CURVE('',#207,#236,#89,.T.);
#297=EDGE_CURVE('',#205,#237,#90,.T.);
#298=ORIENTED_EDGE('',*,*,#238,.F.);
#299=ORIENTED_EDGE('',*,*,#239,.T.);
#300=ORIENTED_EDGE('',*,*,#240,.T.);
#301=ORIENTED_EDGE('',*,*,#241,.T.);
#302=ORIENTED_EDGE('',*,*,#242,.F.);
#303=ORIENTED_EDGE('',*,*,#243,.T.);
#304=ORIENTED_EDGE('',*,*,#244,.T.);
#305=ORIENTED_EDGE('',*,*,#245,.T.);
#306=ORIENTED_EDGE('',*,*,#246,.F.);
#307=ORIENTED_EDGE('',*,*,#247,.T.);
#308=ORIENTED_EDGE('',*,*,#243,.F.);
#309=ORIENTED_EDGE('',*,*,#248,.T.);
#310=ORIENTED_EDGE('',*,*,#249,.T.);
#311=ORIENTED_EDGE('',*,*,#241,.F.);
#312=ORIENTED_EDGE('',*,*,#250,.F.);
#313=ORIENTED_EDGE('',*,*,#251,.T.);
#314=ORIENTED_EDGE('',*,*,#252,.T.);
#315=ORIENTED_EDGE('',*,*,#253,.T.);
#316=ORIENTED_EDGE('',*,*,#254,.T.);
#317=ORIENTED_EDGE('',*,*,#255,.T.);
#318=ORIENTED_EDGE('',*,*,#256,.T.);
#319=ORIENTED_EDGE('',*,*,#257,.T.);
#320=ORIENTED_EDGE('',*,*,#258,.T.);
#321=ORIENTED_EDGE('',*,*,#248,.F.);
#322=ORIENTED_EDGE('',*,*,#242,.T.);
#323=ORIENTED_EDGE('',*,*,#249,.F.);
#324=ORIENTED_EDGE('',*,*,#259,.T.);
#325=ORIENTED_EDGE('',*,*,#260,.F.);
#326=ORIENTED_EDGE('',*,*,#259,.F.);
#327=ORIENTED_EDGE('',*,*,#258,.F.);
#328=ORIENTED_EDGE('',*,*,#261,.T.);
#329=ORIENTED_EDGE('',*,*,#262,.F.);
#330=ORIENTED_EDGE('',*,*,#261,.F.);
#331=ORIENTED_EDGE('',*,*,#257,.F.);
#332=ORIENTED_EDGE('',*,*,#263,.T.);
#333=ORIENTED_EDGE('',*,*,#264,.F.);
#334=ORIENTED_EDGE('',*,*,#263,.F.);
#335=ORIENTED_EDGE('',*,*,#256,.F.);
#336=ORIENTED_EDGE('',*,*,#265,.T.);
#337=ORIENTED_EDGE('',*,*,#266,.F.);
#338=ORIENTED_EDGE('',*,*,#265,.F.);
#339=ORIENTED_EDGE('',*,*,#267,.F.);
#340=ORIENTED_EDGE('',*,*,#268,.T.);
#341=ORIENTED_EDGE('',*,*,#269,.F.);
#342=ORIENTED_EDGE('',*,*,#268,.F.);
#343=ORIENTED_EDGE('',*,*,#270,.F.);
#344=ORIENTED_EDGE('',*,*,#238,.T.);
#345=ORIENTED_EDGE('',*,*,#271,.T.);
#346=ORIENTED_EDGE('',*,*,#272,.F.);
#347=ORIENTED_EDGE('',*,*,#271,.F.);
#348=ORIENTED_EDGE('',*,*,#246,.T.);
#349=ORIENTED_EDGE('',*,*,#273,.F.);
#350=ORIENTED_EDGE('',*,*,#274,.T.);
#351=ORIENTED_EDGE('',*,*,#275,.F.);
#352=ORIENTED_EDGE('',*,*,#274,.F.);
#353=ORIENTED_EDGE('',*,*,#276,.F.);
#354=ORIENTED_EDGE('',*,*,#277,.T.);
#355=ORIENTED_EDGE('',*,*,#278,.F.);
#356=ORIENTED_EDGE('',*,*,#277,.F.);
#357=ORIENTED_EDGE('',*,*,#279,.F.);
#358=ORIENTED_EDGE('',*,*,#280,.T.);
#359=ORIENTED_EDGE('',*,*,#281,.F.);
#360=ORIENTED_EDGE('',*,*,#280,.F.);
#361=ORIENTED_EDGE('',*,*,#252,.F.);
#362=ORIENTED_EDGE('',*,*,#282,.T.);
#363=ORIENTED_EDGE('',*,*,#283,.F.);
#364=ORIENTED_EDGE('',*,*,#284,.F.);
#365=ORIENTED_EDGE('',*,*,#253,.F.);
#366=ORIENTED_EDGE('',*,*,#284,.T.);
#367=ORIENTED_EDGE('',*,*,#285,.F.);
#368=ORIENTED_EDGE('',*,*,#286,.F.);
#369=ORIENTED_EDGE('',*,*,#254,.F.);
#370=ORIENTED_EDGE('',*,*,#286,.T.);
#371=ORIENTED_EDGE('',*,*,#287,.F.);
#372=ORIENTED_EDGE('',*,*,#288,.F.);
#373=ORIENTED_EDGE('',*,*,#287,.T.);
#374=ORIENTED_EDGE('',*,*,#285,.T.);
#375=ORIENTED_EDGE('',*,*,#283,.T.);
#376=ORIENTED_EDGE('',*,*,#289,.T.);
#377=ORIENTED_EDGE('',*,*,#260,.T.);
#378=ORIENTED_EDGE('',*,*,#262,.T.);
#379=ORIENTED_EDGE('',*,*,#264,.T.);
#380=ORIENTED_EDGE('',*,*,#266,.T.);
#381=ORIENTED_EDGE('',*,*,#290,.T.);
#382=ORIENTED_EDGE('',*,*,#250,.T.);
#383=ORIENTED_EDGE('',*,*,#240,.F.);
#384=ORIENTED_EDGE('',*,*,#291,.F.);
#385=ORIENTED_EDGE('',*,*,#292,.F.);
#386=ORIENTED_EDGE('',*,*,#293,.T.);
#387=ORIENTED_EDGE('',*,*,#292,.T.);
#388=ORIENTED_EDGE('',*,*,#294,.F.);
#389=ORIENTED_EDGE('',*,*,#295,.F.);
#390=ORIENTED_EDGE('',*,*,#296,.T.);
#391=ORIENTED_EDGE('',*,*,#295,.T.);
#392=ORIENTED_EDGE('',*,*,#297,.F.);
#393=ORIENTED_EDGE('',*,*,#244,.F.);
#394=ORIENTED_EDGE('',*,*,#247,.F.);
#395=ORIENTED_EDGE('',*,*,#245,.F.);
#396=ORIENTED_EDGE('',*,*,#297,.T.);
#397=ORIENTED_EDGE('',*,*,#294,.T.);
#398=ORIENTED_EDGE('',*,*,#291,.T.);
#399=ORIENTED_EDGE('',*,*,#239,.F.);
#400=ORIENTED_EDGE('',*,*,#270,.T.);
#401=ORIENTED_EDGE('',*,*,#279,.T.);
#402=ORIENTED_EDGE('',*,*,#276,.T.);
#403=ORIENTED_EDGE('',*,*,#273,.T.);
#404=ORIENTED_EDGE('',*,*,#267,.T.);
#405=ORIENTED_EDGE('',*,*,#290,.F.);
#406=ORIENTED_EDGE('',*,*,#293,.F.);
#407=ORIENTED_EDGE('',*,*,#296,.F.);
#408=ORIENTED_EDGE('',*,*,#255,.F.);
#409=ORIENTED_EDGE('',*,*,#288,.T.);
#410=ORIENTED_EDGE('',*,*,#289,.F.);
#411=ORIENTED_EDGE('',*,*,#282,.F.);
#412=ORIENTED_EDGE('',*,*,#251,.F.);
#413=ORIENTED_EDGE('',*,*,#281,.T.);
#414=ORIENTED_EDGE('',*,*,#278,.T.);
#415=ORIENTED_EDGE('',*,*,#275,.T.);
#416=ORIENTED_EDGE('',*,*,#272,.T.);
#417=ORIENTED_EDGE('',*,*,#269,.T.);
#418=B_SPLINE_SURFACE_WITH_KNOTS('',3,3,((#602,#603,#604,#605),(#606,#607,
#608,#609),(#610,#611,#612,#613),(#614,#615,#616,#617),(#618,#619,#620,
#621),(#622,#623,#624,#625),(#626,#627,#628,#629)),.UNSPECIFIED.,.F.,.F.,
 .F.,(4,1,1,1,4),(4,4),(0.,0.285714285714286,0.571428571428571,0.785714285714286,
1.),(-6.66133814775094E-16,3.),.UNSPECIFIED.);
#419=ADVANCED_FACE('',(#133),#418,.T.);
#420=ADVANCED_FACE('',(#134,#24,#25,#26),#123,.T.);
#421=ADVANCED_FACE('',(#135),#15,.F.);
#422=ADVANCED_FACE('',(#136),#16,.F.);
#423=ADVANCED_FACE('',(#137),#17,.F.);
#424=ADVANCED_FACE('',(#138),#18,.F.);
#425=ADVANCED_FACE('',(#139),#19,.F.);
#426=ADVANCED_FACE('',(#140),#20,.F.);
#427=ADVANCED_FACE('',(#141),#21,.F.);
#428=ADVANCED_FACE('',(#142),#22,.F.);
#429=ADVANCED_FACE('',(#143),#23,.F.);
#430=ADVANCED_FACE('',(#144),#124,.T.);
#431=ADVANCED_FACE('',(#145),#125,.T.);
#432=ADVANCED_FACE('',(#146),#126,.T.);
#433=ADVANCED_FACE('',(#147,#27,#28,#29,#30),#127,.T.);
#434=ADVANCED_FACE('',(#148),#128,.T.);
#435=ADVANCED_FACE('',(#149),#129,.T.);
#436=ADVANCED_FACE('',(#150),#130,.T.);
#437=ADVANCED_FACE('',(#151,#31,#32,#33,#34),#131,.T.);
#438=ADVANCED_FACE('',(#152,#35,#36,#37,#38,#39),#132,.F.);
#439=CLOSED_SHELL('',(#419,#420,#421,#422,#423,#424,#425,#426,#427,#428,
#429,#430,#431,#432,#433,#434,#435,#436,#437,#438));
#440=DERIVED_UNIT_ELEMENT(#442,1.);
#441=DERIVED_UNIT_ELEMENT(#892,-3.);
#442=(
MASS_UNIT()
NAMED_UNIT(*)
SI_UNIT(.KILO.,.GRAM.)
);
#443=DERIVED_UNIT((#440,#441));
#444=MEASURE_REPRESENTATION_ITEM('density measure',
POSITIVE_RATIO_MEASURE(7850.),#443);
#445=PROPERTY_DEFINITION_REPRESENTATION(#450,#447);
#446=PROPERTY_DEFINITION_REPRESENTATION(#451,#448);
#447=REPRESENTATION('material name',(#449),#889);
#448=REPRESENTATION('density',(#444),#889);
#449=DESCRIPTIVE_REPRESENTATION_ITEM('Steel','Steel');
#450=PROPERTY_DEFINITION('material property','material name',#899);
#451=PROPERTY_DEFINITION('material property','density of part',#899);
#452=AXIS2_PLACEMENT_3D('',#601,#491,#492);
#453=AXIS2_PLACEMENT_3D('',#786,#493,#494);
#454=AXIS2_PLACEMENT_3D('',#790,#496,#497);
#455=AXIS2_PLACEMENT_3D('',#791,#498,#499);
#456=AXIS2_PLACEMENT_3D('',#804,#506,#507);
#457=AXIS2_PLACEMENT_3D('',#806,#508,#509);
#458=AXIS2_PLACEMENT_3D('',#808,#510,#511);
#459=AXIS2_PLACEMENT_3D('',#809,#512,#513);
#460=AXIS2_PLACEMENT_3D('',#812,#515,#516);
#461=AXIS2_PLACEMENT_3D('',#813,#517,#518);
#462=AXIS2_PLACEMENT_3D('',#816,#520,#521);
#463=AXIS2_PLACEMENT_3D('',#817,#522,#523);
#464=AXIS2_PLACEMENT_3D('',#820,#525,#526);
#465=AXIS2_PLACEMENT_3D('',#821,#527,#528);
#466=AXIS2_PLACEMENT_3D('',#824,#530,#531);
#467=AXIS2_PLACEMENT_3D('',#825,#532,#533);
#468=AXIS2_PLACEMENT_3D('',#827,#534,#535);
#469=AXIS2_PLACEMENT_3D('',#830,#537,#538);
#470=AXIS2_PLACEMENT_3D('',#831,#539,#540);
#471=AXIS2_PLACEMENT_3D('',#832,#541,#542);
#472=AXIS2_PLACEMENT_3D('',#835,#544,#545);
#473=AXIS2_PLACEMENT_3D('',#836,#546,#547);
#474=AXIS2_PLACEMENT_3D('',#838,#548,#549);
#475=AXIS2_PLACEMENT_3D('',#841,#551,#552);
#476=AXIS2_PLACEMENT_3D('',#842,#553,#554);
#477=AXIS2_PLACEMENT_3D('',#844,#555,#556);
#478=AXIS2_PLACEMENT_3D('',#847,#558,#559);
#479=AXIS2_PLACEMENT_3D('',#848,#560,#561);
#480=AXIS2_PLACEMENT_3D('',#850,#562,#563);
#481=AXIS2_PLACEMENT_3D('',#853,#565,#566);
#482=AXIS2_PLACEMENT_3D('',#854,#567,#568);
#483=AXIS2_PLACEMENT_3D('',#860,#572,#573);
#484=AXIS2_PLACEMENT_3D('',#864,#576,#577);
#485=AXIS2_PLACEMENT_3D('',#868,#580,#581);
#486=AXIS2_PLACEMENT_3D('',#870,#583,#584);
#487=AXIS2_PLACEMENT_3D('',#876,#588,#589);
#488=AXIS2_PLACEMENT_3D('',#882,#593,#594);
#489=AXIS2_PLACEMENT_3D('',#885,#597,#598);
#490=AXIS2_PLACEMENT_3D('',#886,#599,#600);
#491=DIRECTION('axis',(0.,0.,1.));
#492=DIRECTION('refdir',(1.,0.,0.));
#493=DIRECTION('center_axis',(1.,0.,0.));
#494=DIRECTION('ref_axis',(0.,1.,0.));
#495=DIRECTION('',(0.,0.,1.));
#496=DIRECTION('center_axis',(-1.,0.,0.));
#497=DIRECTION('ref_axis',(0.,1.,0.));
#498=DIRECTION('center_axis',(-1.,0.,0.));
#499=DIRECTION('ref_axis',(0.,1.,0.));
#500=DIRECTION('',(0.,0.,1.));
#501=DIRECTION('',(0.,1.,0.));
#502=DIRECTION('',(0.,0.,1.));
#503=DIRECTION('',(0.,-1.,0.));
#504=DIRECTION('',(0.,0.,-1.));
#505=DIRECTION('',(0.,1.,0.));
#506=DIRECTION('center_axis',(-1.,0.,0.));
#507=DIRECTION('ref_axis',(0.,1.,0.));
#508=DIRECTION('center_axis',(-1.,0.,0.));
#509=DIRECTION('ref_axis',(0.,1.,0.));
#510=DIRECTION('center_axis',(-1.,0.,0.));
#511=DIRECTION('ref_axis',(0.,1.,0.));
#512=DIRECTION('center_axis',(-1.,0.,0.));
#513=DIRECTION('ref_axis',(0.,1.,0.));
#514=DIRECTION('',(-1.,0.,0.));
#515=DIRECTION('center_axis',(1.,0.,0.));
#516=DIRECTION('ref_axis',(0.,1.,0.));
#517=DIRECTION('center_axis',(-1.,0.,0.));
#518=DIRECTION('ref_axis',(0.,1.,0.));
#519=DIRECTION('',(-1.,0.,0.));
#520=DIRECTION('center_axis',(1.,0.,0.));
#521=DIRECTION('ref_axis',(0.,1.,0.));
#522=DIRECTION('center_axis',(-1.,0.,0.));
#523=DIRECTION('ref_axis',(0.,1.,0.));
#524=DIRECTION('',(-1.,0.,0.));
#525=DIRECTION('center_axis',(1.,0.,0.));
#526=DIRECTION('ref_axis',(0.,1.,0.));
#527=DIRECTION('center_axis',(-1.,0.,0.));
#528=DIRECTION('ref_axis',(0.,1.,0.));
#529=DIRECTION('',(-1.,0.,0.));
#530=DIRECTION('center_axis',(1.,0.,0.));
#531=DIRECTION('ref_axis',(0.,1.,0.));
#532=DIRECTION('center_axis',(0.,0.,-1.));
#533=DIRECTION('ref_axis',(1.,0.,0.));
#534=DIRECTION('center_axis',(0.,0.,-1.));
#535=DIRECTION('ref_axis',(1.,0.,0.));
#536=DIRECTION('',(0.,0.,-1.));
#537=DIRECTION('center_axis',(0.,0.,1.));
#538=DIRECTION('ref_axis',(1.,0.,0.));
#539=DIRECTION('center_axis',(0.,0.,-1.));
#540=DIRECTION('ref_axis',(1.,0.,0.));
#541=DIRECTION('center_axis',(0.,0.,-1.));
#542=DIRECTION('ref_axis',(1.,0.,0.));
#543=DIRECTION('',(0.,0.,-1.));
#544=DIRECTION('center_axis',(0.,0.,1.));
#545=DIRECTION('ref_axis',(1.,0.,0.));
#546=DIRECTION('center_axis',(0.,0.,-1.));
#547=DIRECTION('ref_axis',(1.,0.,0.));
#548=DIRECTION('center_axis',(0.,0.,-1.));
#549=DIRECTION('ref_axis',(1.,0.,0.));
#550=DIRECTION('',(0.,0.,-1.));
#551=DIRECTION('center_axis',(0.,0.,1.));
#552=DIRECTION('ref_axis',(1.,0.,0.));
#553=DIRECTION('center_axis',(0.,0.,-1.));
#554=DIRECTION('ref_axis',(1.,0.,0.));
#555=DIRECTION('center_axis',(0.,0.,-1.));
#556=DIRECTION('ref_axis',(1.,0.,0.));
#557=DIRECTION('',(0.,0.,-1.));
#558=DIRECTION('center_axis',(0.,0.,1.));
#559=DIRECTION('ref_axis',(1.,0.,0.));
#560=DIRECTION('center_axis',(0.,0.,-1.));
#561=DIRECTION('ref_axis',(1.,0.,0.));
#562=DIRECTION('center_axis',(0.,0.,-1.));
#563=DIRECTION('ref_axis',(1.,0.,0.));
#564=DIRECTION('',(0.,0.,-1.));
#565=DIRECTION('center_axis',(0.,0.,1.));
#566=DIRECTION('ref_axis',(1.,0.,0.));
#567=DIRECTION('center_axis',(0.,1.,0.));
#568=DIRECTION('ref_axis',(0.,0.,-1.));
#569=DIRECTION('',(-1.,0.,0.));
#570=DIRECTION('',(0.,0.,-1.));
#571=DIRECTION('',(-1.,0.,0.));
#572=DIRECTION('center_axis',(0.,0.,1.));
#573=DIRECTION('ref_axis',(0.,1.,0.));
#574=DIRECTION('',(0.,1.,0.));
#575=DIRECTION('',(-1.,0.,0.));
#576=DIRECTION('center_axis',(0.,-1.,0.));
#577=DIRECTION('ref_axis',(0.,0.,1.));
#578=DIRECTION('',(0.,0.,1.));
#579=DIRECTION('',(-1.,0.,0.));
#580=DIRECTION('center_axis',(-1.,0.,0.));
#581=DIRECTION('ref_axis',(0.,0.,1.));
#582=DIRECTION('',(0.,-1.,0.));
#583=DIRECTION('center_axis',(0.,1.,0.));
#584=DIRECTION('ref_axis',(-1.,0.,0.));
#585=DIRECTION('',(-1.,0.,0.));
#586=DIRECTION('',(-1.,0.,0.));
#587=DIRECTION('',(0.,0.,1.));
#588=DIRECTION('center_axis',(1.,0.,0.));
#589=DIRECTION('ref_axis',(0.,1.,0.));
#590=DIRECTION('',(0.,1.,0.));
#591=DIRECTION('',(0.,1.,0.));
#592=DIRECTION('',(0.,0.,1.));
#593=DIRECTION('center_axis',(0.,-1.,0.));
#594=DIRECTION('ref_axis',(1.,0.,0.));
#595=DIRECTION('',(1.,0.,0.));
#596=DIRECTION('',(1.,0.,0.));
#597=DIRECTION('center_axis',(0.,0.,1.));
#598=DIRECTION('ref_axis',(1.,0.,0.));
#599=DIRECTION('center_axis',(0.,0.,1.));
#600=DIRECTION('ref_axis',(1.,0.,0.));
#601=CARTESIAN_POINT('',(0.,0.,0.));
#602=CARTESIAN_POINT('Ctrl Pts',(3.,30.,11.));
#603=CARTESIAN_POINT('Ctrl Pts',(3.,20.,11.));
#604=CARTESIAN_POINT('Ctrl Pts',(3.,10.,11.));
#605=CARTESIAN_POINT('Ctrl Pts',(3.,-2.22044604925031E-15,11.));
#606=CARTESIAN_POINT('Ctrl Pts',(2.30414227754959,30.,11.));
#607=CARTESIAN_POINT('Ctrl Pts',(2.30414227754959,20.,11.));
#608=CARTESIAN_POINT('Ctrl Pts',(2.30414227754959,10.,11.));
#609=CARTESIAN_POINT('Ctrl Pts',(2.30414227754959,-2.22044604925031E-15,
11.));
#610=CARTESIAN_POINT('Ctrl Pts',(1.3000613492853,30.,11.1568176597183));
#611=CARTESIAN_POINT('Ctrl Pts',(1.3000613492853,20.0000000000001,11.1568176597183));
#612=CARTESIAN_POINT('Ctrl Pts',(1.3000613492853,9.99999999999996,11.1568176597183));
#613=CARTESIAN_POINT('Ctrl Pts',(1.3000613492853,-2.22044604925031E-15,
11.1568176597183));
#614=CARTESIAN_POINT('Ctrl Pts',(0.496701680844132,30.,11.7456751927554));
#615=CARTESIAN_POINT('Ctrl Pts',(0.496701680844132,20.,11.7456751927554));
#616=CARTESIAN_POINT('Ctrl Pts',(0.496701680844132,10.,11.7456751927554));
#617=CARTESIAN_POINT('Ctrl Pts',(0.496701680844132,-2.22044604925031E-15,
11.7456751927554));
#618=CARTESIAN_POINT('Ctrl Pts',(0.0892901661174469,30.,12.6563789871457));
#619=CARTESIAN_POINT('Ctrl Pts',(0.0892901661174469,20.,12.6563789871457));
#620=CARTESIAN_POINT('Ctrl Pts',(0.0892901661174469,9.99999999999997,12.6563789871457));
#621=CARTESIAN_POINT('Ctrl Pts',(0.0892901661174469,-2.22044604925031E-15,
12.6563789871457));
#622=CARTESIAN_POINT('Ctrl Pts',(0.,30.,13.4781067081622));
#623=CARTESIAN_POINT('Ctrl Pts',(0.,20.,13.4781067081622));
#624=CARTESIAN_POINT('Ctrl Pts',(0.,10.,13.4781067081622));
#625=CARTESIAN_POINT('Ctrl Pts',(0.,-2.22044604925031E-15,13.4781067081622));
#626=CARTESIAN_POINT('Ctrl Pts',(0.,30.,14.));
#627=CARTESIAN_POINT('Ctrl Pts',(0.,20.,14.));
#628=CARTESIAN_POINT('Ctrl Pts',(0.,10.,14.));
#629=CARTESIAN_POINT('Ctrl Pts',(0.,-2.22044604925031E-15,14.));
#630=CARTESIAN_POINT('',(3.,17.8284273271902,11.));
#631=CARTESIAN_POINT('',(1.00000005960464,15.0000002235174,11.4205607905185));
#632=CARTESIAN_POINT('Ctrl Pts',(1.00000005960464,15.0000002235174,11.4205607905185));
#633=CARTESIAN_POINT('Ctrl Pts',(1.00000005960464,15.0260961854075,11.4205607905185));
#634=CARTESIAN_POINT('Ctrl Pts',(1.0003404939038,15.0521863660305,11.4203489246423));
#635=CARTESIAN_POINT('Ctrl Pts',(1.00207336429106,15.1185815273271,11.4192727252897));
#636=CARTESIAN_POINT('Ctrl Pts',(1.00393697146184,15.1588386680381,11.4181159194524));
#637=CARTESIAN_POINT('Ctrl Pts',(1.01252741979877,15.2880286252687,11.4128210362356));
#638=CARTESIAN_POINT('Ctrl Pts',(1.02238551123646,15.3764423252398,11.4067720359266));
#639=CARTESIAN_POINT('Ctrl Pts',(1.06741955938172,15.6639565480751,11.3800958263587));
#640=CARTESIAN_POINT('Ctrl Pts',(1.11858716722887,15.8587127451526,11.3507929281245));
#641=CARTESIAN_POINT('Ctrl Pts',(1.29630389132165,16.336435149637,11.2645747613635));
#642=CARTESIAN_POINT('Ctrl Pts',(1.44857798498477,16.6085616907039,11.2025017221064));
#643=CARTESIAN_POINT('Ctrl Pts',(1.81306130495359,17.0723456680048,11.1033030776981));
#644=CARTESIAN_POINT('Ctrl Pts',(2.0148984688874,17.266788830455,11.0645744822931));
#645=CARTESIAN_POINT('Ctrl Pts',(2.47453848955887,17.5990078212372,11.0125807397056));
#646=CARTESIAN_POINT('Ctrl Pts',(2.72923109581587,17.7326960566294,11.));
#647=CARTESIAN_POINT('Ctrl Pts',(3.,17.8284273271902,11.));
#648=CARTESIAN_POINT('',(3.,30.,11.));
#649=CARTESIAN_POINT('Ctrl Pts',(3.,17.8284273271902,11.));
#650=CARTESIAN_POINT('Ctrl Pts',(3.,21.8856182181268,11.));
#651=CARTESIAN_POINT('Ctrl Pts',(3.,25.9428091090634,11.));
#652=CARTESIAN_POINT('Ctrl Pts',(3.,30.,11.));
#653=CARTESIAN_POINT('',(0.,30.,14.));
#654=CARTESIAN_POINT('Ctrl Pts',(3.,30.,11.));
#655=CARTESIAN_POINT('Ctrl Pts',(2.30414227754959,30.,11.));
#656=CARTESIAN_POINT('Ctrl Pts',(1.80210181341744,30.,11.0784088298592));
#657=CARTESIAN_POINT('Ctrl Pts',(1.40501618708934,30.,11.2246782507955));
#658=CARTESIAN_POINT('Ctrl Pts',(1.00793056076124,30.,11.3709476717318));
#659=CARTESIAN_POINT('Ctrl Pts',(0.715799772237178,30.,11.5850776837453));
#660=CARTESIAN_POINT('Ctrl Pts',(0.497478230932195,30.,11.8850085561831));
#661=CARTESIAN_POINT('Ctrl Pts',(0.333737074953458,30.,12.1099567105115));
#662=CARTESIAN_POINT('Ctrl Pts',(0.211513620535453,30.,12.3831678488286));
#663=CARTESIAN_POINT('Ctrl Pts',(0.128079351797088,30.,12.7252053482413));
#664=CARTESIAN_POINT('Ctrl Pts',(0.0446450830587234,30.,13.0672428476539));
#665=CARTESIAN_POINT('Ctrl Pts',(1.15648231731787E-17,30.,13.4781067081622));
#666=CARTESIAN_POINT('Ctrl Pts',(1.73472347597681E-17,30.,14.));
#667=CARTESIAN_POINT('',(0.,17.2819276296008,14.));
#668=CARTESIAN_POINT('Ctrl Pts',(0.,30.,14.));
#669=CARTESIAN_POINT('Ctrl Pts',(0.,25.7606425432003,14.));
#670=CARTESIAN_POINT('Ctrl Pts',(0.,21.5212850864005,14.));
#671=CARTESIAN_POINT('Ctrl Pts',(0.,17.2819276296008,14.));
#672=CARTESIAN_POINT('',(0.,12.7180723703992,14.));
#673=CARTESIAN_POINT('Ctrl Pts',(-2.77555756156289E-17,17.2819276296008,
14.));
#674=CARTESIAN_POINT('Ctrl Pts',(-2.67476549127909E-17,17.233403521528,
13.9431436341872));
#675=CARTESIAN_POINT('Ctrl Pts',(0.000531683445439035,17.182845111398,13.8881210175969));
#676=CARTESIAN_POINT('Ctrl Pts',(0.00154786148189348,17.1303705182503,13.8351024342155));
#677=CARTESIAN_POINT('Ctrl Pts',(0.00263559080321565,17.0742010759444,13.7783506981516));
#678=CARTESIAN_POINT('Ctrl Pts',(0.00427852017174368,17.0158361052825,13.7238949543269));
#679=CARTESIAN_POINT('Ctrl Pts',(0.00639296894346264,16.9554204744441,13.6718893597547));
#680=CARTESIAN_POINT('Ctrl Pts',(0.0087450483592585,16.8882150809685,13.6140391577844));
#681=CARTESIAN_POINT('Ctrl Pts',(0.0116807348274266,16.8184722034218,13.5592204874517));
#682=CARTESIAN_POINT('Ctrl Pts',(0.0150517114897996,16.7463912474465,13.5075831712163));
#683=CARTESIAN_POINT('Ctrl Pts',(0.0181114585155465,16.6809652558873,13.460713334788));
#684=CARTESIAN_POINT('Ctrl Pts',(0.0215290981842199,16.6136129878303,13.4164628889491));
#685=CARTESIAN_POINT('Ctrl Pts',(0.0251740339621784,16.5444835601422,13.3749126962642));
#686=CARTESIAN_POINT('Ctrl Pts',(0.0308706072781364,16.4364430137225,13.3099750037118));
#687=CARTESIAN_POINT('Ctrl Pts',(0.037078102298983,16.3246014211301,13.2521325465977));
#688=CARTESIAN_POINT('Ctrl Pts',(0.043205434125316,16.2096581093206,13.2015379353556));
#689=CARTESIAN_POINT('Ctrl Pts',(0.0479669893840211,16.1203355548528,13.1622208159225));
#690=CARTESIAN_POINT('Ctrl Pts',(0.0526782184777898,16.0291399160239,13.1272786301448));
#691=CARTESIAN_POINT('Ctrl Pts',(0.0570602409189581,15.9363993731687,13.0968131183484));
#692=CARTESIAN_POINT('Ctrl Pts',(0.0608207325321473,15.856812826479,13.070668728825));
#693=CARTESIAN_POINT('Ctrl Pts',(0.0643382756166752,15.7760885436346,13.0478208503499));
#694=CARTESIAN_POINT('Ctrl Pts',(0.0674478221744474,15.6944339312656,13.0283696591268));
#695=CARTESIAN_POINT('Ctrl Pts',(0.0699752882333487,15.6280643633942,13.0125595644046));
#696=CARTESIAN_POINT('Ctrl Pts',(0.0722332407778311,15.561080166108,12.9989938969826));
#697=CARTESIAN_POINT('Ctrl Pts',(0.0741429663742778,15.493592714336,12.9877501544347));
#698=CARTESIAN_POINT('Ctrl Pts',(0.0762224996194019,15.4201044603955,12.9755066486287));
#699=CARTESIAN_POINT('Ctrl Pts',(0.0778903715029085,15.3461862632591,12.966003202002));
#700=CARTESIAN_POINT('Ctrl Pts',(0.0790851721398464,15.2719772618123,12.9592556095439));
#701=CARTESIAN_POINT('Ctrl Pts',(0.0792332760914702,15.2627785335722,12.9584191979484));
#702=CARTESIAN_POINT('Ctrl Pts',(0.0793741403461371,15.2535753370226,12.9576251900306));
#703=CARTESIAN_POINT('Ctrl Pts',(0.0795076731609053,15.2443679371735,12.9568736664906));
#704=CARTESIAN_POINT('Ctrl Pts',(0.080297156431118,15.1899312194601,12.9524304495703));
#705=CARTESIAN_POINT('Ctrl Pts',(0.08082946423797,15.1353843402987,12.9494727852837));
#706=CARTESIAN_POINT('Ctrl Pts',(0.0810938276488337,15.0807806852279,12.948003886129));
#707=CARTESIAN_POINT('Ctrl Pts',(0.0813076458627054,15.0366170244551,12.946815834452));
#708=CARTESIAN_POINT('Ctrl Pts',(0.081346274079627,14.9924344809527,12.9466022006231));
#709=CARTESIAN_POINT('Ctrl Pts',(0.0812091991843842,14.9482610601807,12.9473631358057));
#710=CARTESIAN_POINT('Ctrl Pts',(0.0810522233343861,14.8976744063611,12.9482345458977));
#711=CARTESIAN_POINT('Ctrl Pts',(0.0806647557052207,14.8471227960704,12.9503836279894));
#712=CARTESIAN_POINT('Ctrl Pts',(0.0800535312568987,14.79664852583,12.9538083821644));
#713=CARTESIAN_POINT('Ctrl Pts',(0.0791575530915796,14.72265959399,12.9588286410412));
#714=CARTESIAN_POINT('Ctrl Pts',(0.0777800558985547,14.6489053864905,12.9665865530576));
#715=CARTESIAN_POINT('Ctrl Pts',(0.0759727915606138,14.5755224613972,12.9770612776229));
#716=CARTESIAN_POINT('Ctrl Pts',(0.0756493637262015,14.5623898608984,12.9789358332211));
#717=CARTESIAN_POINT('Ctrl Pts',(0.0753122319337738,14.549269151329,12.980897519719));
#718=CARTESIAN_POINT('Ctrl Pts',(0.074961769967402,14.5361611153694,12.9829463738629));
#719=CARTESIAN_POINT('Ctrl Pts',(0.0728661713377832,14.4577811916408,12.9951975632876));
#720=CARTESIAN_POINT('Ctrl Pts',(0.0702932586327963,14.3799806421727,13.010554865112));
#721=CARTESIAN_POINT('Ctrl Pts',(0.0673560387022746,14.3029355657902,13.0289440426158));
#722=CARTESIAN_POINT('Ctrl Pts',(0.0642354491344278,14.2210805915968,13.0484812501919));
#723=CARTESIAN_POINT('Ctrl Pts',(0.0607039435810243,14.1400783627703,13.0714408984169));
#724=CARTESIAN_POINT('Ctrl Pts',(0.056920147719218,14.0601400613678,13.0977878504193));
#725=CARTESIAN_POINT('Ctrl Pts',(0.0560256964472318,14.0412434511961,13.1040160047892));
#726=CARTESIAN_POINT('Ctrl Pts',(0.0551172312280247,14.022406293505,13.1104336584591));
#727=CARTESIAN_POINT('Ctrl Pts',(0.0541969904276559,14.0036313779076,13.117040730647));
#728=CARTESIAN_POINT('Ctrl Pts',(0.0483738550436806,13.8848267397057,13.1588492179762));
#729=CARTESIAN_POINT('Ctrl Pts',(0.0421036253006934,13.7689079399328,13.2080620308562));
#730=CARTESIAN_POINT('Ctrl Pts',(0.0359998074811883,13.6565424876844,13.2643520721956));
#731=CARTESIAN_POINT('Ctrl Pts',(0.0312025719809364,13.5682299671492,13.3085926757997));
#732=CARTESIAN_POINT('Ctrl Pts',(0.0265094358972243,13.482112356207,13.3572090769024));
#733=CARTESIAN_POINT('Ctrl Pts',(0.0222014966261176,13.3985137149983,13.4100425621513));
#734=CARTESIAN_POINT('Ctrl Pts',(0.019259424591806,13.3414207039486,13.4461247605399));
#735=CARTESIAN_POINT('Ctrl Pts',(0.0164966424111073,13.2855025645055,13.4841737845133));
#736=CARTESIAN_POINT('Ctrl Pts',(0.0139934704137335,13.2308625197467,13.5241275476415));
#737=CARTESIAN_POINT('Ctrl Pts',(0.0108979341538831,13.1632921570356,13.5735361870041));
#738=CARTESIAN_POINT('Ctrl Pts',(0.00821012815503956,13.0978655447047,13.6257005104564));
#739=CARTESIAN_POINT('Ctrl Pts',(0.00604790337035019,13.034739434119,13.680504063744));
#740=CARTESIAN_POINT('Ctrl Pts',(0.00405115350957677,12.9764443607224,13.731113504618));
#741=CARTESIAN_POINT('Ctrl Pts',(0.00250258662497805,12.9201111482194,13.783973966006));
#742=CARTESIAN_POINT('Ctrl Pts',(0.00147492386275339,12.8658632433984,13.8389557375717));
#743=CARTESIAN_POINT('Ctrl Pts',(0.000505905144221987,12.8147110199793,
13.8907999492954));
#744=CARTESIAN_POINT('Ctrl Pts',(-2.67722397306618E-17,12.7654128969105,
13.9445304530058));
#745=CARTESIAN_POINT('Ctrl Pts',(-2.77555756156289E-17,12.7180723703992,
14.));
#746=CARTESIAN_POINT('',(0.,-2.22044604925031E-15,14.));
#747=CARTESIAN_POINT('Ctrl Pts',(0.,12.7180723703992,14.));
#748=CARTESIAN_POINT('Ctrl Pts',(0.,8.47871491359947,14.));
#749=CARTESIAN_POINT('Ctrl Pts',(0.,4.23935745679973,14.));
#750=CARTESIAN_POINT('Ctrl Pts',(0.,-2.22044604925031E-15,14.));
#751=CARTESIAN_POINT('',(3.,-1.11022302462516E-15,11.));
#752=CARTESIAN_POINT('Ctrl Pts',(1.73472347597681E-17,8.8817841970012E-15,
14.));
#753=CARTESIAN_POINT('Ctrl Pts',(1.15648231731787E-17,8.88178419700126E-15,
13.4781067081622));
#754=CARTESIAN_POINT('Ctrl Pts',(0.0446450830587235,8.88178419700125E-15,
13.0672428476539));
#755=CARTESIAN_POINT('Ctrl Pts',(0.128079351797088,8.88178419700125E-15,
12.7252053482413));
#756=CARTESIAN_POINT('Ctrl Pts',(0.211513620535453,8.88178419700124E-15,
12.3831678488286));
#757=CARTESIAN_POINT('Ctrl Pts',(0.333737074953458,-4.99600361081321E-15,
12.1099567105115));
#758=CARTESIAN_POINT('Ctrl Pts',(0.497478230932195,-4.44089209850063E-15,
11.8850085561831));
#759=CARTESIAN_POINT('Ctrl Pts',(0.715799772237178,7.40148683083438E-16,
11.5850776837453));
#760=CARTESIAN_POINT('Ctrl Pts',(1.00793056076124,5.92118946466749E-16,
11.3709476717318));
#761=CARTESIAN_POINT('Ctrl Pts',(1.40501618708934,0.,11.2246782507955));
#762=CARTESIAN_POINT('Ctrl Pts',(1.80210181341744,-5.9211894646675E-16,
11.0784088298592));
#763=CARTESIAN_POINT('Ctrl Pts',(2.30414227754959,4.44089209850063E-15,
11.));
#764=CARTESIAN_POINT('Ctrl Pts',(3.,4.44089209850063E-15,11.));
#765=CARTESIAN_POINT('',(3.,12.1715731198447,11.));
#766=CARTESIAN_POINT('Ctrl Pts',(3.,-2.22044604925031E-15,11.));
#767=CARTESIAN_POINT('Ctrl Pts',(3.,4.05719103994822,11.));
#768=CARTESIAN_POINT('Ctrl Pts',(3.,8.11438207989644,11.));
#769=CARTESIAN_POINT('Ctrl Pts',(3.,12.1715731198447,11.));
#770=CARTESIAN_POINT('Ctrl Pts',(3.,12.1715731198447,11.));
#771=CARTESIAN_POINT('Ctrl Pts',(2.72628548394645,12.2683458215391,11.));
#772=CARTESIAN_POINT('Ctrl Pts',(2.46902662584982,12.4038930820871,11.0128620944254));
#773=CARTESIAN_POINT('Ctrl Pts',(1.92224428313855,12.801670902109,11.0755261083798));
#774=CARTESIAN_POINT('Ctrl Pts',(1.65942987847894,13.0851361867167,11.1369265584037));
#775=CARTESIAN_POINT('Ctrl Pts',(1.26831129993483,13.7097446386123,11.2716183483372));
#776=CARTESIAN_POINT('Ctrl Pts',(1.13393837771326,14.0437213956129,11.3423774852544));
#777=CARTESIAN_POINT('Ctrl Pts',(1.03679547555458,14.5156963501731,11.3979992002726));
#778=CARTESIAN_POINT('Ctrl Pts',(1.01938221822557,14.6377416349182,11.4086233988254));
#779=CARTESIAN_POINT('Ctrl Pts',(1.00585973998361,14.8070103147545,11.4169254290501));
#780=CARTESIAN_POINT('Ctrl Pts',(1.00324885267081,14.8530043976964,11.4185437633463));
#781=CARTESIAN_POINT('Ctrl Pts',(1.00067371722823,14.9295123759659,11.4201415859262));
#782=CARTESIAN_POINT('Ctrl Pts',(1.00011277362244,14.9599537610862,11.4204906938648));
#783=CARTESIAN_POINT('Ctrl Pts',(1.00000517141114,14.9936052504998,11.4205576114002));
#784=CARTESIAN_POINT('Ctrl Pts',(1.00000005960464,14.9968027804048,11.4205607905185));
#785=CARTESIAN_POINT('Ctrl Pts',(1.00000005960464,15.0000002235174,11.4205607905185));
#786=CARTESIAN_POINT('Origin',(0.,15.,20.));
#787=CARTESIAN_POINT('',(0.,0.,0.));
#788=CARTESIAN_POINT('',(0.,0.,0.));
#789=CARTESIAN_POINT('',(0.,12.,15.9475128480358));
#790=CARTESIAN_POINT('Origin',(0.,15.,15.9475128480358));
#791=CARTESIAN_POINT('Origin',(0.,15.,15.9475128480358));
#792=CARTESIAN_POINT('',(0.,30.,0.));
#793=CARTESIAN_POINT('',(0.,30.,0.));
#794=CARTESIAN_POINT('',(0.,35.,0.));
#795=CARTESIAN_POINT('',(0.,-5.,0.));
#796=CARTESIAN_POINT('',(0.,35.,40.));
#797=CARTESIAN_POINT('',(0.,35.,0.));
#798=CARTESIAN_POINT('',(0.,-5.,40.));
#799=CARTESIAN_POINT('',(0.,35.,40.));
#800=CARTESIAN_POINT('',(0.,-5.,0.));
#801=CARTESIAN_POINT('',(0.,-5.,40.));
#802=CARTESIAN_POINT('',(0.,-5.,0.));
#803=CARTESIAN_POINT('',(0.,2.4475128480358,25.5));
#804=CARTESIAN_POINT('Origin',(0.,5.4475128480358,25.5));
#805=CARTESIAN_POINT('',(0.,21.5524871519642,25.5));
#806=CARTESIAN_POINT('Origin',(0.,24.5524871519642,25.5));
#807=CARTESIAN_POINT('',(0.,12.,35.0524871519642));
#808=CARTESIAN_POINT('Origin',(0.,15.,35.0524871519642));
#809=CARTESIAN_POINT('Origin',(-7.15,15.,15.9475128480358));
#810=CARTESIAN_POINT('',(-13.,12.,15.9475128480358));
#811=CARTESIAN_POINT('',(-7.15,12.,15.9475128480358));
#812=CARTESIAN_POINT('Origin',(-13.,15.,15.9475128480358));
#813=CARTESIAN_POINT('Origin',(-7.15,15.,35.0524871519642));
#814=CARTESIAN_POINT('',(-13.,12.,35.0524871519642));
#815=CARTESIAN_POINT('',(-7.15,12.,35.0524871519642));
#816=CARTESIAN_POINT('Origin',(-13.,15.,35.0524871519642));
#817=CARTESIAN_POINT('Origin',(-7.15,24.5524871519642,25.5));
#818=CARTESIAN_POINT('',(-13.,21.5524871519642,25.5));
#819=CARTESIAN_POINT('',(-7.15,21.5524871519642,25.5));
#820=CARTESIAN_POINT('Origin',(-13.,24.5524871519642,25.5));
#821=CARTESIAN_POINT('Origin',(-7.15,5.4475128480358,25.5));
#822=CARTESIAN_POINT('',(-13.,2.4475128480358,25.5));
#823=CARTESIAN_POINT('',(-7.15,2.4475128480358,25.5));
#824=CARTESIAN_POINT('Origin',(-13.,5.4475128480358,25.5));
#825=CARTESIAN_POINT('Origin',(26.0000003874302,15.0000002235174,4.95));
#826=CARTESIAN_POINT('',(23.0000003874302,15.0000002235174,11.));
#827=CARTESIAN_POINT('Origin',(26.0000003874302,15.0000002235174,11.));
#828=CARTESIAN_POINT('',(23.0000003874302,15.0000002235174,0.));
#829=CARTESIAN_POINT('',(23.0000003874302,15.0000002235174,4.95));
#830=CARTESIAN_POINT('Origin',(26.0000003874302,15.0000002235174,0.));
#831=CARTESIAN_POINT('Origin',(4.00000005960464,15.0000002235174,4.95));
#832=CARTESIAN_POINT('Origin',(4.00000005960464,15.0000002235174,11.));
#833=CARTESIAN_POINT('',(1.00000005960464,15.0000002235174,0.));
#834=CARTESIAN_POINT('',(1.00000005960464,15.0000002235174,4.95));
#835=CARTESIAN_POINT('Origin',(4.00000005960464,15.0000002235174,0.));
#836=CARTESIAN_POINT('Origin',(15.0000002235174,26.0000003874302,4.95));
#837=CARTESIAN_POINT('',(12.0000002235174,26.0000003874302,11.));
#838=CARTESIAN_POINT('Origin',(15.0000002235174,26.0000003874302,11.));
#839=CARTESIAN_POINT('',(12.0000002235174,26.0000003874302,0.));
#840=CARTESIAN_POINT('',(12.0000002235174,26.0000003874302,4.95));
#841=CARTESIAN_POINT('Origin',(15.0000002235174,26.0000003874302,0.));
#842=CARTESIAN_POINT('Origin',(15.0000002235174,4.00000005960464,4.95));
#843=CARTESIAN_POINT('',(12.0000002235174,4.00000005960465,11.));
#844=CARTESIAN_POINT('Origin',(15.0000002235174,4.00000005960464,11.));
#845=CARTESIAN_POINT('',(12.0000002235174,4.00000005960464,0.));
#846=CARTESIAN_POINT('',(12.0000002235174,4.00000005960465,4.95));
#847=CARTESIAN_POINT('Origin',(15.0000002235174,4.00000005960464,0.));
#848=CARTESIAN_POINT('Origin',(15.,15.,3.5));
#849=CARTESIAN_POINT('',(12.,15.,11.));
#850=CARTESIAN_POINT('Origin',(15.,15.,11.));
#851=CARTESIAN_POINT('',(12.,15.,0.));
#852=CARTESIAN_POINT('',(12.,15.,3.5));
#853=CARTESIAN_POINT('Origin',(15.,15.,0.));
#854=CARTESIAN_POINT('Origin',(0.,35.,40.));
#855=CARTESIAN_POINT('',(-13.,35.,0.));
#856=CARTESIAN_POINT('',(0.,35.,0.));
#857=CARTESIAN_POINT('',(-13.,35.,40.));
#858=CARTESIAN_POINT('',(-13.,35.,0.));
#859=CARTESIAN_POINT('',(0.,35.,40.));
#860=CARTESIAN_POINT('Origin',(0.,-5.,40.));
#861=CARTESIAN_POINT('',(-13.,-5.,40.));
#862=CARTESIAN_POINT('',(-13.,35.,40.));
#863=CARTESIAN_POINT('',(0.,-5.,40.));
#864=CARTESIAN_POINT('Origin',(0.,-5.,0.));
#865=CARTESIAN_POINT('',(-13.,-5.,0.));
#866=CARTESIAN_POINT('',(-13.,-5.,40.));
#867=CARTESIAN_POINT('',(0.,-5.,0.));
#868=CARTESIAN_POINT('Origin',(-13.,15.,20.));
#869=CARTESIAN_POINT('',(-13.,-5.,0.));
#870=CARTESIAN_POINT('Origin',(30.,30.,0.));
#871=CARTESIAN_POINT('',(30.,30.,0.));
#872=CARTESIAN_POINT('',(30.,30.,0.));
#873=CARTESIAN_POINT('',(30.,30.,11.));
#874=CARTESIAN_POINT('',(30.,30.,11.));
#875=CARTESIAN_POINT('',(30.,30.,0.));
#876=CARTESIAN_POINT('Origin',(30.,0.,0.));
#877=CARTESIAN_POINT('',(30.,0.,0.));
#878=CARTESIAN_POINT('',(30.,0.,0.));
#879=CARTESIAN_POINT('',(30.,0.,11.));
#880=CARTESIAN_POINT('',(30.,0.,11.));
#881=CARTESIAN_POINT('',(30.,0.,0.));
#882=CARTESIAN_POINT('Origin',(0.,0.,0.));
#883=CARTESIAN_POINT('',(0.,0.,0.));
#884=CARTESIAN_POINT('',(0.,0.,11.));
#885=CARTESIAN_POINT('Origin',(15.,15.,11.));
#886=CARTESIAN_POINT('Origin',(15.,15.,0.));
#887=UNCERTAINTY_MEASURE_WITH_UNIT(LENGTH_MEASURE(0.01),#891,
'DISTANCE_ACCURACY_VALUE',
'Maximum model space distance between geometric entities at asserted c
onnectivities');
#888=UNCERTAINTY_MEASURE_WITH_UNIT(LENGTH_MEASURE(0.01),#891,
'DISTANCE_ACCURACY_VALUE',
'Maximum model space distance between geometric entities at asserted c
onnectivities');
#889=(
GEOMETRIC_REPRESENTATION_CONTEXT(3)
GLOBAL_UNCERTAINTY_ASSIGNED_CONTEXT((#887))
GLOBAL_UNIT_ASSIGNED_CONTEXT((#891,#893,#894))
REPRESENTATION_CONTEXT('','3D')
);
#890=(
GEOMETRIC_REPRESENTATION_CONTEXT(3)
GLOBAL_UNCERTAINTY_ASSIGNED_CONTEXT((#888))
GLOBAL_UNIT_ASSIGNED_CONTEXT((#891,#893,#894))
REPRESENTATION_CONTEXT('','3D')
);
#891=(
LENGTH_UNIT()
NAMED_UNIT(*)
SI_UNIT(.MILLI.,.METRE.)
);
#892=(
LENGTH_UNIT()
NAMED_UNIT(*)
SI_UNIT($,.METRE.)
);
#893=(
NAMED_UNIT(*)
PLANE_ANGLE_UNIT()
SI_UNIT($,.RADIAN.)
);
#894=(
NAMED_UNIT(*)
SI_UNIT($,.STERADIAN.)
SOLID_ANGLE_UNIT()
);
#895=SHAPE_DEFINITION_REPRESENTATION(#896,#897);
#896=PRODUCT_DEFINITION_SHAPE('',$,#899);
#897=SHAPE_REPRESENTATION('',(#452),#889);
#898=PRODUCT_DEFINITION_CONTEXT('part definition',#903,'design');
#899=PRODUCT_DEFINITION('2026-09-16-16-56-53-182','Motor_Mount',#900,#898);
#900=PRODUCT_DEFINITION_FORMATION('',$,#905);
#901=PRODUCT_RELATED_PRODUCT_CATEGORY('Motor_Mount','Motor_Mount',(#905));
#902=APPLICATION_PROTOCOL_DEFINITION('international standard',
'automotive_design',2009,#903);
#903=APPLICATION_CONTEXT(
'Core Data for Automotive Mechanical Design Process');
#904=PRODUCT_CONTEXT('part definition',#903,'mechanical');
#905=PRODUCT('2026-09-16-16-56-53-182','Motor_Mount',$,(#904));
#906=PRESENTATION_STYLE_ASSIGNMENT((#907));
#907=SURFACE_STYLE_USAGE(.BOTH.,#908);
#908=SURFACE_SIDE_STYLE('',(#909));
#909=SURFACE_STYLE_FILL_AREA(#910);
#910=FILL_AREA_STYLE('Steel - Satin',(#911));
#911=FILL_AREA_STYLE_COLOUR('Steel - Satin',#912);
#912=COLOUR_RGB('Steel - Satin',0.627450980392157,0.627450980392157,0.627450980392157);
ENDSEC;
END-ISO-10303-21;
